<svg xmlns="http://www.w3.org/2000/svg" xmlns:xlink="http://www.w3.org/1999/xlink" width="150" zoomAndPan="magnify" viewBox="0 0 112.5 112.499997" height="150" preserveAspectRatio="xMidYMid meet" version="1.0"><defs><clipPath id="45b4dffeb7"><path d="M 0 0 L 112.003906 0 L 112.003906 112.003906 L 0 112.003906 Z M 0 0 " clip-rule="nonzero"/></clipPath><clipPath id="ae675d9305"><path d="M 41.707031 7.785156 L 71.597656 7.785156 L 71.597656 37.679688 L 41.707031 37.679688 Z M 41.707031 7.785156 " clip-rule="nonzero"/></clipPath><clipPath id="70b31a08df"><path d="M 44.839844 7.785156 L 68.460938 7.785156 C 70.191406 7.785156 71.597656 9.191406 71.597656 10.921875 L 71.597656 34.542969 C 71.597656 36.273438 70.191406 37.679688 68.460938 37.679688 L 44.839844 37.679688 C 43.109375 37.679688 41.707031 36.273438 41.707031 34.542969 L 41.707031 10.921875 C 41.707031 9.191406 43.109375 7.785156 44.839844 7.785156 Z M 44.839844 7.785156 " clip-rule="nonzero"/></clipPath><clipPath id="9484f0b70f"><path d="M 77.015625 7.785156 L 106.910156 7.785156 L 106.910156 37.679688 L 77.015625 37.679688 Z M 77.015625 7.785156 " clip-rule="nonzero"/></clipPath><clipPath id="6ecfc1cfab"><path d="M 80.152344 7.785156 L 103.773438 7.785156 C 105.503906 7.785156 106.910156 9.191406 106.910156 10.921875 L 106.910156 34.542969 C 106.910156 36.273438 105.503906 37.679688 103.773438 37.679688 L 80.152344 37.679688 C 78.421875 37.679688 77.015625 36.273438 77.015625 34.542969 L 77.015625 10.921875 C 77.015625 9.191406 78.421875 7.785156 80.152344 7.785156 Z M 80.152344 7.785156 " clip-rule="nonzero"/></clipPath><clipPath id="4994ab1de9"><path d="M 6.394531 7.785156 L 36.285156 7.785156 L 36.285156 37.679688 L 6.394531 37.679688 Z M 6.394531 7.785156 " clip-rule="nonzero"/></clipPath><clipPath id="a80446ea67"><path d="M 9.527344 7.785156 L 33.148438 7.785156 C 34.882812 7.785156 36.285156 9.191406 36.285156 10.921875 L 36.285156 34.542969 C 36.285156 36.273438 34.882812 37.679688 33.148438 37.679688 L 9.527344 37.679688 C 7.796875 37.679688 6.394531 36.273438 6.394531 34.542969 L 6.394531 10.921875 C 6.394531 9.191406 7.796875 7.785156 9.527344 7.785156 Z M 9.527344 7.785156 " clip-rule="nonzero"/></clipPath><clipPath id="aa26645f00"><path d="M 41.054688 43.46875 L 70.945312 43.46875 L 70.945312 73.359375 L 41.054688 73.359375 Z M 41.054688 43.46875 " clip-rule="nonzero"/></clipPath><clipPath id="a5e12961b1"><path d="M 44.191406 43.46875 L 67.8125 43.46875 C 69.542969 43.46875 70.945312 44.871094 70.945312 46.605469 L 70.945312 70.226562 C 70.945312 71.957031 69.542969 73.359375 67.8125 73.359375 L 44.191406 73.359375 C 42.460938 73.359375 41.054688 71.957031 41.054688 70.226562 L 41.054688 46.605469 C 41.054688 44.871094 42.460938 43.46875 44.191406 43.46875 Z M 44.191406 43.46875 " clip-rule="nonzero"/></clipPath><clipPath id="6febf21f0c"><path d="M 77.015625 43.46875 L 106.910156 43.46875 L 106.910156 73.359375 L 77.015625 73.359375 Z M 77.015625 43.46875 " clip-rule="nonzero"/></clipPath><clipPath id="e2c3dbb185"><path d="M 80.152344 43.46875 L 103.773438 43.46875 C 105.503906 43.46875 106.910156 44.871094 106.910156 46.605469 L 106.910156 70.226562 C 106.910156 71.957031 105.503906 73.359375 103.773438 73.359375 L 80.152344 73.359375 C 78.421875 73.359375 77.015625 71.957031 77.015625 70.226562 L 77.015625 46.605469 C 77.015625 44.871094 78.421875 43.46875 80.152344 43.46875 Z M 80.152344 43.46875 " clip-rule="nonzero"/></clipPath><clipPath id="d79252e48c"><path d="M 7.449219 43.46875 L 37.34375 43.46875 L 37.34375 73.359375 L 7.449219 73.359375 Z M 7.449219 43.46875 " clip-rule="nonzero"/></clipPath><clipPath id="ec0c35d64c"><path d="M 10.585938 43.46875 L 34.207031 43.46875 C 35.9375 43.46875 37.34375 44.871094 37.34375 46.605469 L 37.34375 70.226562 C 37.34375 71.957031 35.9375 73.359375 34.207031 73.359375 L 10.585938 73.359375 C 8.855469 73.359375 7.449219 71.957031 7.449219 70.226562 L 7.449219 46.605469 C 7.449219 44.871094 8.855469 43.46875 10.585938 43.46875 Z M 10.585938 43.46875 " clip-rule="nonzero"/></clipPath><clipPath id="1047bbd281"><path d="M 41.707031 79.152344 L 71.597656 79.152344 L 71.597656 109.042969 L 41.707031 109.042969 Z M 41.707031 79.152344 " clip-rule="nonzero"/></clipPath><clipPath id="2b61667f1c"><path d="M 44.839844 79.152344 L 68.460938 79.152344 C 70.191406 79.152344 71.597656 80.554688 71.597656 82.289062 L 71.597656 105.90625 C 71.597656 107.640625 70.191406 109.042969 68.460938 109.042969 L 44.839844 109.042969 C 43.109375 109.042969 41.707031 107.640625 41.707031 105.90625 L 41.707031 82.289062 C 41.707031 80.554688 43.109375 79.152344 44.839844 79.152344 Z M 44.839844 79.152344 " clip-rule="nonzero"/></clipPath><clipPath id="a3c48d4d31"><path d="M 77.015625 79.152344 L 106.910156 79.152344 L 106.910156 109.042969 L 77.015625 109.042969 Z M 77.015625 79.152344 " clip-rule="nonzero"/></clipPath><clipPath id="82dcfdcc4c"><path d="M 80.152344 79.152344 L 103.773438 79.152344 C 105.503906 79.152344 106.910156 80.554688 106.910156 82.289062 L 106.910156 105.90625 C 106.910156 107.640625 105.503906 109.042969 103.773438 109.042969 L 80.152344 109.042969 C 78.421875 109.042969 77.015625 107.640625 77.015625 105.90625 L 77.015625 82.289062 C 77.015625 80.554688 78.421875 79.152344 80.152344 79.152344 Z M 80.152344 79.152344 " clip-rule="nonzero"/></clipPath><clipPath id="8cc65b8d1b"><path d="M 6.394531 79.152344 L 36.285156 79.152344 L 36.285156 109.042969 L 6.394531 109.042969 Z M 6.394531 79.152344 " clip-rule="nonzero"/></clipPath><clipPath id="2a8ab78503"><path d="M 9.527344 79.152344 L 33.148438 79.152344 C 34.882812 79.152344 36.285156 80.554688 36.285156 82.289062 L 36.285156 105.90625 C 36.285156 107.640625 34.882812 109.042969 33.148438 109.042969 L 9.527344 109.042969 C 7.796875 109.042969 6.394531 107.640625 6.394531 105.90625 L 6.394531 82.289062 C 6.394531 80.554688 7.796875 79.152344 9.527344 79.152344 Z M 9.527344 79.152344 " clip-rule="nonzero"/></clipPath></defs><g clip-path="url(#45b4dffeb7)"><path fill="#ffffff" d="M 0 0 L 112.003906 0 L 112.003906 112.003906 L 0 112.003906 Z M 0 0 " fill-opacity="1" fill-rule="nonzero"/><path fill="#ffffff" d="M 0 0 L 112.003906 0 L 112.003906 112.003906 L 0 112.003906 Z M 0 0 " fill-opacity="1" fill-rule="nonzero"/></g><g clip-path="url(#ae675d9305)"><g clip-path="url(#70b31a08df)"><path fill="#d9d9d9" d="M 41.707031 7.785156 L 71.597656 7.785156 L 71.597656 37.679688 L 41.707031 37.679688 Z M 41.707031 7.785156 " fill-opacity="1" fill-rule="nonzero"/></g></g><g clip-path="url(#9484f0b70f)"><g clip-path="url(#6ecfc1cfab)"><path fill="#d9d9d9" d="M 77.015625 7.785156 L 106.910156 7.785156 L 106.910156 37.679688 L 77.015625 37.679688 Z M 77.015625 7.785156 " fill-opacity="1" fill-rule="nonzero"/></g></g><g clip-path="url(#4994ab1de9)"><g clip-path="url(#a80446ea67)"><path fill="#d9d9d9" d="M 6.394531 7.785156 L 36.285156 7.785156 L 36.285156 37.679688 L 6.394531 37.679688 Z M 6.394531 7.785156 " fill-opacity="1" fill-rule="nonzero"/></g></g><g clip-path="url(#aa26645f00)"><g clip-path="url(#a5e12961b1)"><path fill="#006dff" d="M 41.054688 43.46875 L 70.945312 43.46875 L 70.945312 73.359375 L 41.054688 73.359375 Z M 41.054688 43.46875 " fill-opacity="1" fill-rule="nonzero"/></g></g><g clip-path="url(#6febf21f0c)"><g clip-path="url(#e2c3dbb185)"><path fill="#006dff" d="M 77.015625 43.46875 L 106.910156 43.46875 L 106.910156 73.359375 L 77.015625 73.359375 Z M 77.015625 43.46875 " fill-opacity="1" fill-rule="nonzero"/></g></g><g clip-path="url(#d79252e48c)"><g clip-path="url(#ec0c35d64c)"><path fill="#006dff" d="M 7.449219 43.46875 L 37.34375 43.46875 L 37.34375 73.359375 L 7.449219 73.359375 Z M 7.449219 43.46875 " fill-opacity="1" fill-rule="nonzero"/></g></g><g clip-path="url(#1047bbd281)"><g clip-path="url(#2b61667f1c)"><path fill="#d9d9d9" d="M 41.707031 79.152344 L 71.597656 79.152344 L 71.597656 109.042969 L 41.707031 109.042969 Z M 41.707031 79.152344 " fill-opacity="1" fill-rule="nonzero"/></g></g><g clip-path="url(#a3c48d4d31)"><g clip-path="url(#82dcfdcc4c)"><path fill="#d9d9d9" d="M 77.015625 79.152344 L 106.910156 79.152344 L 106.910156 109.042969 L 77.015625 109.042969 Z M 77.015625 79.152344 " fill-opacity="1" fill-rule="nonzero"/></g></g><g clip-path="url(#8cc65b8d1b)"><g clip-path="url(#2a8ab78503)"><path fill="#d9d9d9" d="M 6.394531 79.152344 L 36.285156 79.152344 L 36.285156 109.042969 L 6.394531 109.042969 Z M 6.394531 79.152344 " fill-opacity="1" fill-rule="nonzero"/></g></g></svg>