<svg xmlns="http://www.w3.org/2000/svg" xmlns:xlink="http://www.w3.org/1999/xlink" width="500" zoomAndPan="magnify" viewBox="0 0 375 82.499998" height="110" preserveAspectRatio="xMidYMid meet" version="1.0"><defs><g/></defs><g fill="#000000" fill-opacity="1"><g transform="translate(4.888965, 66.347887)"><g><path d="M 18.875 0 L 9.625 0 L 1.28125 -35.171875 L 9.46875 -35.171875 L 14.640625 -11.390625 L 15.3125 -11.390625 L 22 -35.171875 L 29.65625 -35.171875 L 36.578125 -11.390625 L 37.25 -11.390625 L 42.21875 -35.171875 L 50.203125 -35.171875 L 41.9375 0 L 32.65625 0 L 25.984375 -23.953125 L 25.328125 -23.953125 Z M 18.875 0 "/></g></g></g><g fill="#000000" fill-opacity="1"><g transform="translate(56.32792, 66.347887)"><g><path d="M 13.71875 0.671875 C 11.457031 0.671875 9.5 0.257812 7.84375 -0.5625 C 6.1875 -1.394531 4.910156 -2.613281 4.015625 -4.21875 C 3.117188 -5.832031 2.671875 -7.765625 2.671875 -10.015625 C 2.671875 -12.097656 3.117188 -13.84375 4.015625 -15.25 C 4.910156 -16.664062 6.289062 -17.828125 8.15625 -18.734375 C 10.03125 -19.640625 12.476562 -20.335938 15.5 -20.828125 C 17.601562 -21.160156 19.203125 -21.53125 20.296875 -21.9375 C 21.390625 -22.34375 22.128906 -22.800781 22.515625 -23.3125 C 22.898438 -23.820312 23.09375 -24.46875 23.09375 -25.25 C 23.09375 -26.382812 22.695312 -27.25 21.90625 -27.84375 C 21.125 -28.4375 19.816406 -28.734375 17.984375 -28.734375 C 16.023438 -28.734375 14.164062 -28.296875 12.40625 -27.421875 C 10.644531 -26.554688 9.113281 -25.410156 7.8125 -23.984375 L 7.171875 -23.984375 L 3.46875 -29.5625 C 5.257812 -31.539062 7.441406 -33.082031 10.015625 -34.1875 C 12.585938 -35.289062 15.394531 -35.84375 18.4375 -35.84375 C 23.09375 -35.84375 26.460938 -34.851562 28.546875 -32.875 C 30.628906 -30.894531 31.671875 -28.085938 31.671875 -24.453125 L 31.671875 -9.1875 C 31.671875 -7.613281 32.359375 -6.828125 33.734375 -6.828125 C 34.265625 -6.828125 34.785156 -6.921875 35.296875 -7.109375 L 35.75 -6.984375 L 36.390625 -0.828125 C 35.898438 -0.503906 35.21875 -0.242188 34.34375 -0.046875 C 33.46875 0.148438 32.507812 0.25 31.46875 0.25 C 29.363281 0.25 27.722656 -0.148438 26.546875 -0.953125 C 25.367188 -1.765625 24.523438 -3.03125 24.015625 -4.75 L 23.34375 -4.8125 C 21.625 -1.15625 18.414062 0.671875 13.71875 0.671875 Z M 16.515625 -5.9375 C 18.554688 -5.9375 20.1875 -6.617188 21.40625 -7.984375 C 22.632812 -9.359375 23.25 -11.269531 23.25 -13.71875 L 23.25 -17.28125 L 22.640625 -17.40625 C 22.109375 -16.988281 21.410156 -16.632812 20.546875 -16.34375 C 19.691406 -16.050781 18.457031 -15.769531 16.84375 -15.5 C 14.925781 -15.175781 13.546875 -14.625 12.703125 -13.84375 C 11.867188 -13.070312 11.453125 -11.976562 11.453125 -10.5625 C 11.453125 -9.050781 11.894531 -7.898438 12.78125 -7.109375 C 13.675781 -6.328125 14.921875 -5.9375 16.515625 -5.9375 Z M 16.515625 -5.9375 "/></g></g></g><g fill="#000000" fill-opacity="1"><g transform="translate(93.416269, 66.347887)"><g><path d="M 5.078125 0 L 5.078125 -35.171875 L 13.546875 -35.171875 L 13.546875 -30.015625 L 14.21875 -29.84375 C 16.414062 -33.84375 19.96875 -35.84375 24.875 -35.84375 C 28.9375 -35.84375 31.914062 -34.738281 33.8125 -32.53125 C 35.71875 -30.320312 36.671875 -27.097656 36.671875 -22.859375 L 36.671875 0 L 27.84375 0 L 27.84375 -21.78125 C 27.84375 -24.125 27.375 -25.8125 26.4375 -26.84375 C 25.5 -27.875 24 -28.390625 21.9375 -28.390625 C 19.40625 -28.390625 17.429688 -27.566406 16.015625 -25.921875 C 14.609375 -24.285156 13.90625 -21.710938 13.90625 -18.203125 L 13.90625 0 Z M 5.078125 0 "/></g></g></g><g fill="#000000" fill-opacity="1"><g transform="translate(134.618452, 66.347887)"><g><path d="M 17.375 0.671875 C 14.59375 0.671875 12.132812 0 10 -1.34375 C 7.863281 -2.695312 6.1875 -4.738281 4.96875 -7.46875 C 3.757812 -10.207031 3.15625 -13.578125 3.15625 -17.578125 C 3.15625 -21.585938 3.773438 -24.957031 5.015625 -27.6875 C 6.265625 -30.425781 7.988281 -32.46875 10.1875 -33.8125 C 12.382812 -35.164062 14.929688 -35.84375 17.828125 -35.84375 C 20.015625 -35.84375 21.910156 -35.460938 23.515625 -34.703125 C 25.117188 -33.953125 26.472656 -32.78125 27.578125 -31.1875 L 28.25 -31.34375 L 28.25 -49.296875 L 37.09375 -49.296875 L 37.09375 0 L 28.25 0 L 28.25 -4.5625 L 27.578125 -4.6875 C 26.609375 -3.03125 25.269531 -1.722656 23.5625 -0.765625 C 21.863281 0.191406 19.800781 0.671875 17.375 0.671875 Z M 20.25 -6.828125 C 22.738281 -6.828125 24.703125 -7.710938 26.140625 -9.484375 C 27.585938 -11.265625 28.3125 -13.960938 28.3125 -17.578125 C 28.3125 -21.191406 27.585938 -23.890625 26.140625 -25.671875 C 24.703125 -27.453125 22.738281 -28.34375 20.25 -28.34375 C 17.65625 -28.34375 15.671875 -27.476562 14.296875 -25.75 C 12.929688 -24.019531 12.25 -21.296875 12.25 -17.578125 C 12.25 -13.867188 12.929688 -11.148438 14.296875 -9.421875 C 15.671875 -7.691406 17.65625 -6.828125 20.25 -6.828125 Z M 20.25 -6.828125 "/></g></g></g><g fill="#52a1ff" fill-opacity="1"><g transform="translate(176.780778, 66.347887)"><g><path d="M 9 0.28125 C 7.863281 0.28125 6.863281 0.0546875 6 -0.390625 C 5.144531 -0.847656 4.488281 -1.484375 4.03125 -2.296875 C 3.570312 -3.109375 3.34375 -4.019531 3.34375 -5.03125 C 3.34375 -6.050781 3.570312 -6.96875 4.03125 -7.78125 C 4.488281 -8.59375 5.144531 -9.226562 6 -9.6875 C 6.863281 -10.15625 7.863281 -10.390625 9 -10.390625 C 10.144531 -10.390625 11.144531 -10.160156 12 -9.703125 C 12.863281 -9.253906 13.523438 -8.625 13.984375 -7.8125 C 14.441406 -7 14.671875 -6.085938 14.671875 -5.078125 C 14.671875 -3.523438 14.15625 -2.242188 13.125 -1.234375 C 12.09375 -0.222656 10.71875 0.28125 9 0.28125 Z M 9 0.28125 "/></g></g></g><g fill="#000000" fill-opacity="1"><g transform="translate(194.800477, 66.347887)"><g><path d="M 34.765625 -15.59375 L 12.15625 -15.59375 C 12.40625 -12.53125 13.273438 -10.300781 14.765625 -8.90625 C 16.253906 -7.519531 18.285156 -6.828125 20.859375 -6.828125 C 22.878906 -6.828125 24.515625 -7.203125 25.765625 -7.953125 C 27.023438 -8.710938 28.035156 -9.859375 28.796875 -11.390625 L 29.46875 -11.390625 L 35.328125 -7.625 C 34.179688 -5.15625 32.445312 -3.15625 30.125 -1.625 C 27.8125 -0.09375 24.722656 0.671875 20.859375 0.671875 C 17.222656 0.671875 14.082031 -0.015625 11.4375 -1.390625 C 8.789062 -2.773438 6.75 -4.832031 5.3125 -7.5625 C 3.875 -10.300781 3.15625 -13.640625 3.15625 -17.578125 C 3.15625 -21.566406 3.910156 -24.929688 5.421875 -27.671875 C 6.929688 -30.421875 8.972656 -32.46875 11.546875 -33.8125 C 14.117188 -35.164062 17.007812 -35.84375 20.21875 -35.84375 C 25.195312 -35.84375 29.007812 -34.523438 31.65625 -31.890625 C 34.300781 -29.253906 35.625 -25.382812 35.625 -20.28125 C 35.625 -18.4375 35.5625 -17.003906 35.4375 -15.984375 Z M 27.171875 -21.296875 C 27.085938 -23.984375 26.460938 -25.9375 25.296875 -27.15625 C 24.140625 -28.375 22.445312 -28.984375 20.21875 -28.984375 C 15.75 -28.984375 13.125 -26.421875 12.34375 -21.296875 Z M 27.171875 -21.296875 "/></g></g></g><g fill="#000000" fill-opacity="1"><g transform="translate(233.036874, 66.347887)"><g><path d="M 5.078125 0 L 5.078125 -35.171875 L 13.546875 -35.171875 L 13.546875 -30.453125 L 14.21875 -30.328125 C 15.375 -32.222656 16.71875 -33.613281 18.25 -34.5 C 19.789062 -35.394531 21.765625 -35.84375 24.171875 -35.84375 C 26.828125 -35.84375 28.960938 -35.316406 30.578125 -34.265625 C 32.191406 -33.210938 33.375 -31.675781 34.125 -29.65625 L 34.796875 -29.65625 C 35.878906 -31.757812 37.273438 -33.316406 38.984375 -34.328125 C 40.691406 -35.335938 42.820312 -35.84375 45.375 -35.84375 C 52.664062 -35.84375 56.3125 -31.78125 56.3125 -23.65625 L 56.3125 0 L 47.484375 0 L 47.484375 -22.546875 C 47.484375 -24.609375 47.078125 -26.097656 46.265625 -27.015625 C 45.460938 -27.929688 44.171875 -28.390625 42.390625 -28.390625 C 37.535156 -28.390625 35.109375 -25.144531 35.109375 -18.65625 L 35.109375 0 L 26.28125 0 L 26.28125 -22.546875 C 26.28125 -24.609375 25.867188 -26.097656 25.046875 -27.015625 C 24.234375 -27.929688 22.929688 -28.390625 21.140625 -28.390625 C 18.867188 -28.390625 17.09375 -27.628906 15.8125 -26.109375 C 14.539062 -24.585938 13.90625 -22.164062 13.90625 -18.84375 L 13.90625 0 Z M 5.078125 0 "/></g></g></g><g fill="#000000" fill-opacity="1"><g transform="translate(293.883443, 66.347887)"><g><path d="M 13.71875 0.671875 C 11.457031 0.671875 9.5 0.257812 7.84375 -0.5625 C 6.1875 -1.394531 4.910156 -2.613281 4.015625 -4.21875 C 3.117188 -5.832031 2.671875 -7.765625 2.671875 -10.015625 C 2.671875 -12.097656 3.117188 -13.84375 4.015625 -15.25 C 4.910156 -16.664062 6.289062 -17.828125 8.15625 -18.734375 C 10.03125 -19.640625 12.476562 -20.335938 15.5 -20.828125 C 17.601562 -21.160156 19.203125 -21.53125 20.296875 -21.9375 C 21.390625 -22.34375 22.128906 -22.800781 22.515625 -23.3125 C 22.898438 -23.820312 23.09375 -24.46875 23.09375 -25.25 C 23.09375 -26.382812 22.695312 -27.25 21.90625 -27.84375 C 21.125 -28.4375 19.816406 -28.734375 17.984375 -28.734375 C 16.023438 -28.734375 14.164062 -28.296875 12.40625 -27.421875 C 10.644531 -26.554688 9.113281 -25.410156 7.8125 -23.984375 L 7.171875 -23.984375 L 3.46875 -29.5625 C 5.257812 -31.539062 7.441406 -33.082031 10.015625 -34.1875 C 12.585938 -35.289062 15.394531 -35.84375 18.4375 -35.84375 C 23.09375 -35.84375 26.460938 -34.851562 28.546875 -32.875 C 30.628906 -30.894531 31.671875 -28.085938 31.671875 -24.453125 L 31.671875 -9.1875 C 31.671875 -7.613281 32.359375 -6.828125 33.734375 -6.828125 C 34.265625 -6.828125 34.785156 -6.921875 35.296875 -7.109375 L 35.75 -6.984375 L 36.390625 -0.828125 C 35.898438 -0.503906 35.21875 -0.242188 34.34375 -0.046875 C 33.46875 0.148438 32.507812 0.25 31.46875 0.25 C 29.363281 0.25 27.722656 -0.148438 26.546875 -0.953125 C 25.367188 -1.765625 24.523438 -3.03125 24.015625 -4.75 L 23.34375 -4.8125 C 21.625 -1.15625 18.414062 0.671875 13.71875 0.671875 Z M 16.515625 -5.9375 C 18.554688 -5.9375 20.1875 -6.617188 21.40625 -7.984375 C 22.632812 -9.359375 23.25 -11.269531 23.25 -13.71875 L 23.25 -17.28125 L 22.640625 -17.40625 C 22.109375 -16.988281 21.410156 -16.632812 20.546875 -16.34375 C 19.691406 -16.050781 18.457031 -15.769531 16.84375 -15.5 C 14.925781 -15.175781 13.546875 -14.625 12.703125 -13.84375 C 11.867188 -13.070312 11.453125 -11.976562 11.453125 -10.5625 C 11.453125 -9.050781 11.894531 -7.898438 12.78125 -7.109375 C 13.675781 -6.328125 14.921875 -5.9375 16.515625 -5.9375 Z M 16.515625 -5.9375 "/></g></g></g><g fill="#000000" fill-opacity="1"><g transform="translate(330.971791, 66.347887)"><g><path d="M 9.46875 -39.390625 C 7.875 -39.390625 6.578125 -39.867188 5.578125 -40.828125 C 4.578125 -41.796875 4.078125 -43.046875 4.078125 -44.578125 C 4.078125 -46.085938 4.578125 -47.328125 5.578125 -48.296875 C 6.578125 -49.265625 7.875 -49.75 9.46875 -49.75 C 10.53125 -49.75 11.472656 -49.523438 12.296875 -49.078125 C 13.128906 -48.628906 13.773438 -48.015625 14.234375 -47.234375 C 14.691406 -46.460938 14.921875 -45.578125 14.921875 -44.578125 C 14.921875 -43.578125 14.691406 -42.679688 14.234375 -41.890625 C 13.773438 -41.109375 13.128906 -40.492188 12.296875 -40.046875 C 11.472656 -39.609375 10.53125 -39.390625 9.46875 -39.390625 Z M 5.078125 0 L 5.078125 -35.171875 L 13.90625 -35.171875 L 13.90625 0 Z M 5.078125 0 "/></g></g></g><g fill="#000000" fill-opacity="1"><g transform="translate(349.914591, 66.347887)"><g><path d="M 14.609375 0.671875 C 11.441406 0.671875 9.019531 -0.179688 7.34375 -1.890625 C 5.675781 -3.609375 4.84375 -6.207031 4.84375 -9.6875 L 4.84375 -49.296875 L 13.6875 -49.296875 L 13.6875 -10.046875 C 13.6875 -7.898438 14.578125 -6.828125 16.359375 -6.828125 C 16.867188 -6.828125 17.410156 -6.910156 17.984375 -7.078125 L 18.4375 -6.953125 L 19.234375 -0.15625 C 18.742188 0.09375 18.09375 0.289062 17.28125 0.4375 C 16.476562 0.59375 15.585938 0.671875 14.609375 0.671875 Z M 14.609375 0.671875 "/></g></g></g></svg>