<svg xmlns="http://www.w3.org/2000/svg" xmlns:xlink="http://www.w3.org/1999/xlink" width="500" zoomAndPan="magnify" viewBox="0 0 375 74.999997" height="100" preserveAspectRatio="xMidYMid meet" version="1.0"><defs><g/></defs><g fill="#000000" fill-opacity="1"><g transform="translate(5.03907, 60.749994)"><g><path d="M 41.375 0 L 31.609375 0 L 26.109375 -25.703125 L 20.34375 0 L 10.65625 0 L 0.34375 -36.421875 L 10.171875 -36.421875 L 15.9375 -10.921875 L 21.4375 -36.421875 L 30.921875 -36.421875 L 36.359375 -10.921875 L 41.921875 -36.421875 L 51.671875 -36.421875 Z M 41.375 0 "/></g></g></g><g fill="#000000" fill-opacity="1"><g transform="translate(57.540175, 60.749994)"><g><path d="M 35.390625 -2.40625 L 35.390625 0 L 25.078125 0 C 24.390625 -0.875 24.023438 -2.109375 23.984375 -3.703125 C 21.460938 -0.734375 17.796875 0.75 12.984375 0.75 C 9.460938 0.75 6.625 -0.320312 4.46875 -2.46875 C 2.726562 -4.207031 1.859375 -6.613281 1.859375 -9.6875 C 1.859375 -14.269531 3.691406 -17.523438 7.359375 -19.453125 C 8.910156 -20.273438 12 -21.097656 16.625 -21.921875 L 24.046875 -23.296875 L 23.984375 -25.90625 C 23.941406 -28.332031 22.109375 -29.546875 18.484375 -29.546875 C 16.148438 -29.546875 14.507812 -29.191406 13.5625 -28.484375 C 12.625 -27.773438 12.039062 -26.476562 11.8125 -24.59375 L 2.75 -24.59375 C 3.300781 -32.976562 8.476562 -37.171875 18.28125 -37.171875 C 23.6875 -37.171875 27.582031 -36.210938 29.96875 -34.296875 C 32.113281 -32.460938 33.1875 -29.6875 33.1875 -25.96875 L 33.1875 -5.640625 C 33.1875 -3.984375 33.921875 -2.90625 35.390625 -2.40625 Z M 24.046875 -17.59375 L 17.109375 -16.015625 C 15.140625 -15.554688 13.675781 -14.890625 12.71875 -14.015625 C 11.800781 -13.148438 11.34375 -12.070312 11.34375 -10.78125 C 11.34375 -8.175781 13.035156 -6.875 16.421875 -6.875 C 21.328125 -6.875 23.847656 -9.550781 23.984375 -14.90625 Z M 24.046875 -17.59375 "/></g></g></g><g fill="#000000" fill-opacity="1"><g transform="translate(95.0606, 60.749994)"><g><path d="M 4.265625 -36.421875 L 13.75 -36.421875 L 13.75 -31.265625 C 16.3125 -35.203125 19.925781 -37.171875 24.59375 -37.171875 C 28.769531 -37.171875 31.929688 -35.9375 34.078125 -33.46875 C 35.910156 -31.269531 36.828125 -28.289062 36.828125 -24.53125 L 36.828125 0 L 27.421875 0 L 27.421875 -22.609375 C 27.421875 -26.960938 25.378906 -29.140625 21.296875 -29.140625 C 19.003906 -29.140625 17.171875 -28.484375 15.796875 -27.171875 C 14.429688 -25.867188 13.75 -24.140625 13.75 -21.984375 L 13.75 0 L 4.265625 0 Z M 4.265625 -36.421875 "/></g></g></g><g fill="#000000" fill-opacity="1"><g transform="translate(136.36055, 60.749994)"><g><path d="M 36.828125 -49.203125 L 36.828125 0 L 27.34375 0 L 27.34375 -4.046875 C 25.144531 -0.847656 21.828125 0.75 17.390625 0.75 C 12.578125 0.75 8.703125 -1.265625 5.765625 -5.296875 C 3.253906 -8.722656 2 -13.003906 2 -18.140625 C 2 -24.234375 3.597656 -29.046875 6.796875 -32.578125 C 9.597656 -35.640625 13.101562 -37.171875 17.3125 -37.171875 C 21.757812 -37.171875 25.101562 -35.476562 27.34375 -32.09375 L 27.34375 -49.203125 Z M 19.453125 -29.40625 C 17.066406 -29.40625 15.140625 -28.375 13.671875 -26.3125 C 12.203125 -24.257812 11.46875 -21.554688 11.46875 -18.203125 C 11.46875 -14.910156 12.191406 -12.242188 13.640625 -10.203125 C 15.085938 -8.160156 17.023438 -7.140625 19.453125 -7.140625 C 21.878906 -7.140625 23.8125 -8.144531 25.25 -10.15625 C 26.695312 -12.175781 27.421875 -14.859375 27.421875 -18.203125 C 27.421875 -21.597656 26.6875 -24.3125 25.21875 -26.34375 C 23.75 -28.382812 21.828125 -29.40625 19.453125 -29.40625 Z M 19.453125 -29.40625 "/></g></g></g><g fill="#52a1ff" fill-opacity="1"><g transform="translate(177.867184, 60.749994)"><g><path d="M 9.140625 -8.515625 C 10.378906 -8.515625 11.429688 -8.09375 12.296875 -7.25 C 13.171875 -6.40625 13.609375 -5.363281 13.609375 -4.125 C 13.609375 -2.882812 13.171875 -1.828125 12.296875 -0.953125 C 11.429688 -0.0859375 10.378906 0.34375 9.140625 0.34375 C 7.953125 0.34375 6.921875 -0.0859375 6.046875 -0.953125 C 5.171875 -1.828125 4.734375 -2.882812 4.734375 -4.125 C 4.734375 -5.363281 5.15625 -6.40625 6 -7.25 C 6.851562 -8.09375 7.898438 -8.515625 9.140625 -8.515625 Z M 9.140625 -8.515625 "/></g></g></g><g fill="#000000" fill-opacity="1"><g transform="translate(196.218745, 60.749994)"><g><path d="M 35.9375 -15.734375 L 11.46875 -15.734375 C 11.613281 -12.804688 12.070312 -10.722656 12.84375 -9.484375 C 14.175781 -7.460938 16.265625 -6.453125 19.109375 -6.453125 C 22.628906 -6.453125 24.988281 -7.921875 26.1875 -10.859375 L 35.53125 -10.859375 C 34.476562 -7.285156 32.425781 -4.457031 29.375 -2.375 C 26.332031 -0.289062 22.769531 0.75 18.6875 0.75 C 13.144531 0.75 8.882812 -1.101562 5.90625 -4.8125 C 3.300781 -8.0625 2 -12.34375 2 -17.65625 C 2 -24.113281 3.691406 -29.109375 7.078125 -32.640625 C 10.054688 -35.660156 13.972656 -37.171875 18.828125 -37.171875 C 22.535156 -37.171875 25.785156 -36.253906 28.578125 -34.421875 C 31.378906 -32.585938 33.375 -30.023438 34.5625 -26.734375 C 35.53125 -24.171875 36.015625 -21.078125 36.015625 -17.453125 C 36.015625 -16.992188 35.988281 -16.421875 35.9375 -15.734375 Z M 26.109375 -21.984375 C 25.648438 -27.304688 23.203125 -29.96875 18.765625 -29.96875 C 14.585938 -29.96875 12.203125 -27.304688 11.609375 -21.984375 Z M 26.109375 -21.984375 "/></g></g></g><g fill="#000000" fill-opacity="1"><g transform="translate(234.632519, 60.749994)"><g><path d="M 4.265625 -36.421875 L 13.671875 -36.421875 L 13.671875 -32.015625 C 16.460938 -35.453125 19.785156 -37.171875 23.640625 -37.171875 C 28.359375 -37.171875 31.65625 -35.382812 33.53125 -31.8125 C 36.28125 -35.382812 39.832031 -37.171875 44.1875 -37.171875 C 47.851562 -37.171875 50.703125 -36.175781 52.734375 -34.1875 C 54.773438 -32.195312 55.796875 -29.4375 55.796875 -25.90625 L 55.796875 0 L 46.390625 0 L 46.390625 -24.390625 C 46.390625 -27.554688 44.671875 -29.140625 41.234375 -29.140625 C 39.210938 -29.140625 37.628906 -28.507812 36.484375 -27.25 C 35.335938 -25.988281 34.765625 -24.234375 34.765625 -21.984375 L 34.765625 0 L 25.28125 0 L 25.28125 -24.390625 C 25.28125 -27.554688 23.585938 -29.140625 20.203125 -29.140625 C 18.179688 -29.140625 16.597656 -28.507812 15.453125 -27.25 C 14.316406 -25.988281 13.75 -24.234375 13.75 -21.984375 L 13.75 0 L 4.265625 0 Z M 4.265625 -36.421875 "/></g></g></g><g fill="#000000" fill-opacity="1"><g transform="translate(294.898841, 60.749994)"><g><path d="M 35.390625 -2.40625 L 35.390625 0 L 25.078125 0 C 24.390625 -0.875 24.023438 -2.109375 23.984375 -3.703125 C 21.460938 -0.734375 17.796875 0.75 12.984375 0.75 C 9.460938 0.75 6.625 -0.320312 4.46875 -2.46875 C 2.726562 -4.207031 1.859375 -6.613281 1.859375 -9.6875 C 1.859375 -14.269531 3.691406 -17.523438 7.359375 -19.453125 C 8.910156 -20.273438 12 -21.097656 16.625 -21.921875 L 24.046875 -23.296875 L 23.984375 -25.90625 C 23.941406 -28.332031 22.109375 -29.546875 18.484375 -29.546875 C 16.148438 -29.546875 14.507812 -29.191406 13.5625 -28.484375 C 12.625 -27.773438 12.039062 -26.476562 11.8125 -24.59375 L 2.75 -24.59375 C 3.300781 -32.976562 8.476562 -37.171875 18.28125 -37.171875 C 23.6875 -37.171875 27.582031 -36.210938 29.96875 -34.296875 C 32.113281 -32.460938 33.1875 -29.6875 33.1875 -25.96875 L 33.1875 -5.640625 C 33.1875 -3.984375 33.921875 -2.90625 35.390625 -2.40625 Z M 24.046875 -17.59375 L 17.109375 -16.015625 C 15.140625 -15.554688 13.675781 -14.890625 12.71875 -14.015625 C 11.800781 -13.148438 11.34375 -12.070312 11.34375 -10.78125 C 11.34375 -8.175781 13.035156 -6.875 16.421875 -6.875 C 21.328125 -6.875 23.847656 -9.550781 23.984375 -14.90625 Z M 24.046875 -17.59375 "/></g></g></g><g fill="#000000" fill-opacity="1"><g transform="translate(332.419266, 60.749994)"><g><path d="M 13.875 -36.421875 L 13.875 0 L 4.390625 0 L 4.390625 -36.421875 Z M 9.078125 -48.921875 C 10.304688 -48.921875 11.34375 -48.484375 12.1875 -47.609375 C 13.039062 -46.742188 13.46875 -45.695312 13.46875 -44.46875 C 13.46875 -43.226562 13.039062 -42.179688 12.1875 -41.328125 C 11.34375 -40.484375 10.304688 -40.0625 9.078125 -40.0625 C 7.835938 -40.0625 6.78125 -40.484375 5.90625 -41.328125 C 5.039062 -42.179688 4.609375 -43.226562 4.609375 -44.46875 C 4.609375 -45.695312 5.039062 -46.742188 5.90625 -47.609375 C 6.78125 -48.484375 7.835938 -48.921875 9.078125 -48.921875 Z M 9.078125 -48.921875 "/></g></g></g><g fill="#000000" fill-opacity="1"><g transform="translate(351.179473, 60.749994)"><g><path d="M 13.875 -49.203125 L 13.875 0 L 4.390625 0 L 4.390625 -49.203125 Z M 13.875 -49.203125 "/></g></g></g></svg>