<svg xmlns="http://www.w3.org/2000/svg" xmlns:xlink="http://www.w3.org/1999/xlink" width="500" zoomAndPan="magnify" viewBox="0 0 375 374.999991" height="500" preserveAspectRatio="xMidYMid meet" version="1.0"><defs><clipPath id="c4e47c0384"><path d="M 187.5 0 C 83.945312 0 0 83.945312 0 187.5 C 0 291.054688 83.945312 375 187.5 375 C 291.054688 375 375 291.054688 375 187.5 C 375 83.945312 291.054688 0 187.5 0 Z M 187.5 0 " clip-rule="nonzero"/></clipPath><linearGradient x1="128" gradientTransform="matrix(1.464844, 0, 0, 1.464844, 0.0000045, 0)" y1="0" x2="128" gradientUnits="userSpaceOnUse" y2="255.999988" id="de1e1c7e9f"><stop stop-opacity="1" stop-color="rgb(32.899475%, 80.39856%, 100%)" offset="0"/><stop stop-opacity="1" stop-color="rgb(32.89032%, 80.227661%, 100%)" offset="0.0078125"/><stop stop-opacity="1" stop-color="rgb(32.872009%, 79.884338%, 100%)" offset="0.015625"/><stop stop-opacity="1" stop-color="rgb(32.853699%, 79.541016%, 100%)" offset="0.0234375"/><stop stop-opacity="1" stop-color="rgb(32.836914%, 79.197693%, 100%)" offset="0.03125"/><stop stop-opacity="1" stop-color="rgb(32.818604%, 78.855896%, 100%)" offset="0.0390625"/><stop stop-opacity="1" stop-color="rgb(32.800293%, 78.512573%, 100%)" offset="0.046875"/><stop stop-opacity="1" stop-color="rgb(32.781982%, 78.16925%, 100%)" offset="0.0546875"/><stop stop-opacity="1" stop-color="rgb(32.763672%, 77.825928%, 100%)" offset="0.0625"/><stop stop-opacity="1" stop-color="rgb(32.746887%, 77.484131%, 100%)" offset="0.0703125"/><stop stop-opacity="1" stop-color="rgb(32.728577%, 77.140808%, 100%)" offset="0.078125"/><stop stop-opacity="1" stop-color="rgb(32.710266%, 76.797485%, 100%)" offset="0.0859375"/><stop stop-opacity="1" stop-color="rgb(32.691956%, 76.454163%, 100%)" offset="0.09375"/><stop stop-opacity="1" stop-color="rgb(32.675171%, 76.11084%, 100%)" offset="0.101562"/><stop stop-opacity="1" stop-color="rgb(32.65686%, 75.769043%, 100%)" offset="0.109375"/><stop stop-opacity="1" stop-color="rgb(32.63855%, 75.42572%, 100%)" offset="0.117188"/><stop stop-opacity="1" stop-color="rgb(32.620239%, 75.082397%, 100%)" offset="0.125"/><stop stop-opacity="1" stop-color="rgb(32.601929%, 74.739075%, 100%)" offset="0.132812"/><stop stop-opacity="1" stop-color="rgb(32.585144%, 74.397278%, 100%)" offset="0.140625"/><stop stop-opacity="1" stop-color="rgb(32.566833%, 74.053955%, 100%)" offset="0.148438"/><stop stop-opacity="1" stop-color="rgb(32.548523%, 73.710632%, 100%)" offset="0.15625"/><stop stop-opacity="1" stop-color="rgb(32.530212%, 73.36731%, 100%)" offset="0.164062"/><stop stop-opacity="1" stop-color="rgb(32.513428%, 73.025513%, 100%)" offset="0.171875"/><stop stop-opacity="1" stop-color="rgb(32.495117%, 72.68219%, 100%)" offset="0.179688"/><stop stop-opacity="1" stop-color="rgb(32.476807%, 72.338867%, 100%)" offset="0.1875"/><stop stop-opacity="1" stop-color="rgb(32.458496%, 71.995544%, 100%)" offset="0.195312"/><stop stop-opacity="1" stop-color="rgb(32.440186%, 71.652222%, 100%)" offset="0.203125"/><stop stop-opacity="1" stop-color="rgb(32.423401%, 71.310425%, 100%)" offset="0.210938"/><stop stop-opacity="1" stop-color="rgb(32.40509%, 70.967102%, 100%)" offset="0.21875"/><stop stop-opacity="1" stop-color="rgb(32.38678%, 70.623779%, 100%)" offset="0.226562"/><stop stop-opacity="1" stop-color="rgb(32.368469%, 70.280457%, 100%)" offset="0.234375"/><stop stop-opacity="1" stop-color="rgb(32.351685%, 69.93866%, 100%)" offset="0.242188"/><stop stop-opacity="1" stop-color="rgb(32.333374%, 69.595337%, 100%)" offset="0.25"/><stop stop-opacity="1" stop-color="rgb(32.315063%, 69.252014%, 100%)" offset="0.257812"/><stop stop-opacity="1" stop-color="rgb(32.296753%, 68.908691%, 100%)" offset="0.265625"/><stop stop-opacity="1" stop-color="rgb(32.278442%, 68.566895%, 100%)" offset="0.273438"/><stop stop-opacity="1" stop-color="rgb(32.261658%, 68.223572%, 100%)" offset="0.28125"/><stop stop-opacity="1" stop-color="rgb(32.243347%, 67.880249%, 100%)" offset="0.289063"/><stop stop-opacity="1" stop-color="rgb(32.225037%, 67.536926%, 100%)" offset="0.296875"/><stop stop-opacity="1" stop-color="rgb(32.206726%, 67.193604%, 100%)" offset="0.304688"/><stop stop-opacity="1" stop-color="rgb(32.189941%, 66.851807%, 100%)" offset="0.3125"/><stop stop-opacity="1" stop-color="rgb(32.171631%, 66.508484%, 100%)" offset="0.320312"/><stop stop-opacity="1" stop-color="rgb(32.15332%, 66.165161%, 100%)" offset="0.328125"/><stop stop-opacity="1" stop-color="rgb(32.13501%, 65.821838%, 100%)" offset="0.335938"/><stop stop-opacity="1" stop-color="rgb(32.116699%, 65.480042%, 100%)" offset="0.34375"/><stop stop-opacity="1" stop-color="rgb(32.099915%, 65.136719%, 100%)" offset="0.351562"/><stop stop-opacity="1" stop-color="rgb(32.081604%, 64.793396%, 100%)" offset="0.359375"/><stop stop-opacity="1" stop-color="rgb(32.063293%, 64.450073%, 100%)" offset="0.367188"/><stop stop-opacity="1" stop-color="rgb(32.044983%, 64.108276%, 100%)" offset="0.375"/><stop stop-opacity="1" stop-color="rgb(32.028198%, 63.764954%, 100%)" offset="0.382812"/><stop stop-opacity="1" stop-color="rgb(32.009888%, 63.421631%, 100%)" offset="0.390625"/><stop stop-opacity="1" stop-color="rgb(31.991577%, 63.078308%, 100%)" offset="0.398438"/><stop stop-opacity="1" stop-color="rgb(31.973267%, 62.736511%, 100%)" offset="0.40625"/><stop stop-opacity="1" stop-color="rgb(31.954956%, 62.393188%, 100%)" offset="0.414062"/><stop stop-opacity="1" stop-color="rgb(31.938171%, 62.049866%, 100%)" offset="0.421875"/><stop stop-opacity="1" stop-color="rgb(31.919861%, 61.706543%, 100%)" offset="0.429688"/><stop stop-opacity="1" stop-color="rgb(31.90155%, 61.36322%, 100%)" offset="0.4375"/><stop stop-opacity="1" stop-color="rgb(31.88324%, 61.021423%, 100%)" offset="0.445312"/><stop stop-opacity="1" stop-color="rgb(31.866455%, 60.678101%, 100%)" offset="0.453125"/><stop stop-opacity="1" stop-color="rgb(31.848145%, 60.334778%, 100%)" offset="0.460938"/><stop stop-opacity="1" stop-color="rgb(31.829834%, 59.991455%, 100%)" offset="0.46875"/><stop stop-opacity="1" stop-color="rgb(31.811523%, 59.649658%, 100%)" offset="0.476562"/><stop stop-opacity="1" stop-color="rgb(31.794739%, 59.306335%, 100%)" offset="0.484375"/><stop stop-opacity="1" stop-color="rgb(31.776428%, 58.963013%, 100%)" offset="0.492188"/><stop stop-opacity="1" stop-color="rgb(31.758118%, 58.61969%, 100%)" offset="0.5"/><stop stop-opacity="1" stop-color="rgb(31.739807%, 58.277893%, 100%)" offset="0.507812"/><stop stop-opacity="1" stop-color="rgb(31.721497%, 57.93457%, 100%)" offset="0.515625"/><stop stop-opacity="1" stop-color="rgb(31.704712%, 57.591248%, 100%)" offset="0.523438"/><stop stop-opacity="1" stop-color="rgb(31.686401%, 57.247925%, 100%)" offset="0.53125"/><stop stop-opacity="1" stop-color="rgb(31.668091%, 56.904602%, 100%)" offset="0.539062"/><stop stop-opacity="1" stop-color="rgb(31.64978%, 56.562805%, 100%)" offset="0.546875"/><stop stop-opacity="1" stop-color="rgb(31.632996%, 56.219482%, 100%)" offset="0.554688"/><stop stop-opacity="1" stop-color="rgb(31.614685%, 55.87616%, 100%)" offset="0.5625"/><stop stop-opacity="1" stop-color="rgb(31.596375%, 55.532837%, 100%)" offset="0.570312"/><stop stop-opacity="1" stop-color="rgb(31.578064%, 55.19104%, 100%)" offset="0.578125"/><stop stop-opacity="1" stop-color="rgb(31.559753%, 54.847717%, 100%)" offset="0.585938"/><stop stop-opacity="1" stop-color="rgb(31.542969%, 54.504395%, 100%)" offset="0.59375"/><stop stop-opacity="1" stop-color="rgb(31.524658%, 54.161072%, 100%)" offset="0.601563"/><stop stop-opacity="1" stop-color="rgb(31.506348%, 53.819275%, 100%)" offset="0.609375"/><stop stop-opacity="1" stop-color="rgb(31.488037%, 53.475952%, 100%)" offset="0.617188"/><stop stop-opacity="1" stop-color="rgb(31.471252%, 53.132629%, 100%)" offset="0.625"/><stop stop-opacity="1" stop-color="rgb(31.452942%, 52.789307%, 100%)" offset="0.632812"/><stop stop-opacity="1" stop-color="rgb(31.434631%, 52.445984%, 100%)" offset="0.640625"/><stop stop-opacity="1" stop-color="rgb(31.416321%, 52.104187%, 100%)" offset="0.648438"/><stop stop-opacity="1" stop-color="rgb(31.39801%, 51.760864%, 100%)" offset="0.65625"/><stop stop-opacity="1" stop-color="rgb(31.381226%, 51.417542%, 100%)" offset="0.664063"/><stop stop-opacity="1" stop-color="rgb(31.362915%, 51.074219%, 100%)" offset="0.671875"/><stop stop-opacity="1" stop-color="rgb(31.344604%, 50.732422%, 100%)" offset="0.679688"/><stop stop-opacity="1" stop-color="rgb(31.326294%, 50.389099%, 100%)" offset="0.6875"/><stop stop-opacity="1" stop-color="rgb(31.309509%, 50.045776%, 100%)" offset="0.695313"/><stop stop-opacity="1" stop-color="rgb(31.291199%, 49.702454%, 100%)" offset="0.703125"/><stop stop-opacity="1" stop-color="rgb(31.272888%, 49.360657%, 100%)" offset="0.710938"/><stop stop-opacity="1" stop-color="rgb(31.254578%, 49.017334%, 100%)" offset="0.71875"/><stop stop-opacity="1" stop-color="rgb(31.236267%, 48.674011%, 100%)" offset="0.726562"/><stop stop-opacity="1" stop-color="rgb(31.219482%, 48.330688%, 100%)" offset="0.734375"/><stop stop-opacity="1" stop-color="rgb(31.201172%, 47.987366%, 100%)" offset="0.742188"/><stop stop-opacity="1" stop-color="rgb(31.182861%, 47.645569%, 100%)" offset="0.75"/><stop stop-opacity="1" stop-color="rgb(31.164551%, 47.302246%, 100%)" offset="0.757812"/><stop stop-opacity="1" stop-color="rgb(31.147766%, 46.958923%, 100%)" offset="0.765625"/><stop stop-opacity="1" stop-color="rgb(31.129456%, 46.615601%, 100%)" offset="0.773438"/><stop stop-opacity="1" stop-color="rgb(31.111145%, 46.273804%, 100%)" offset="0.78125"/><stop stop-opacity="1" stop-color="rgb(31.092834%, 45.930481%, 100%)" offset="0.789062"/><stop stop-opacity="1" stop-color="rgb(31.074524%, 45.587158%, 100%)" offset="0.796875"/><stop stop-opacity="1" stop-color="rgb(31.057739%, 45.243835%, 100%)" offset="0.804688"/><stop stop-opacity="1" stop-color="rgb(31.039429%, 44.902039%, 100%)" offset="0.8125"/><stop stop-opacity="1" stop-color="rgb(31.021118%, 44.558716%, 100%)" offset="0.820313"/><stop stop-opacity="1" stop-color="rgb(31.002808%, 44.215393%, 100%)" offset="0.828125"/><stop stop-opacity="1" stop-color="rgb(30.986023%, 43.87207%, 100%)" offset="0.835938"/><stop stop-opacity="1" stop-color="rgb(30.967712%, 43.530273%, 100%)" offset="0.84375"/><stop stop-opacity="1" stop-color="rgb(30.949402%, 43.186951%, 100%)" offset="0.851562"/><stop stop-opacity="1" stop-color="rgb(30.931091%, 42.843628%, 100%)" offset="0.859375"/><stop stop-opacity="1" stop-color="rgb(30.912781%, 42.500305%, 100%)" offset="0.867188"/><stop stop-opacity="1" stop-color="rgb(30.895996%, 42.156982%, 100%)" offset="0.875"/><stop stop-opacity="1" stop-color="rgb(30.877686%, 41.815186%, 100%)" offset="0.882812"/><stop stop-opacity="1" stop-color="rgb(30.859375%, 41.471863%, 100%)" offset="0.890625"/><stop stop-opacity="1" stop-color="rgb(30.841064%, 41.12854%, 100%)" offset="0.898438"/><stop stop-opacity="1" stop-color="rgb(30.82428%, 40.785217%, 100%)" offset="0.90625"/><stop stop-opacity="1" stop-color="rgb(30.805969%, 40.44342%, 100%)" offset="0.914062"/><stop stop-opacity="1" stop-color="rgb(30.787659%, 40.100098%, 100%)" offset="0.921875"/><stop stop-opacity="1" stop-color="rgb(30.769348%, 39.756775%, 100%)" offset="0.929688"/><stop stop-opacity="1" stop-color="rgb(30.752563%, 39.413452%, 100%)" offset="0.9375"/><stop stop-opacity="1" stop-color="rgb(30.734253%, 39.071655%, 100%)" offset="0.945312"/><stop stop-opacity="1" stop-color="rgb(30.715942%, 38.728333%, 100%)" offset="0.953125"/><stop stop-opacity="1" stop-color="rgb(30.697632%, 38.38501%, 100%)" offset="0.960938"/><stop stop-opacity="1" stop-color="rgb(30.679321%, 38.041687%, 100%)" offset="0.96875"/><stop stop-opacity="1" stop-color="rgb(30.662537%, 37.698364%, 100%)" offset="0.976562"/><stop stop-opacity="1" stop-color="rgb(30.644226%, 37.356567%, 100%)" offset="0.984375"/><stop stop-opacity="1" stop-color="rgb(30.625916%, 37.013245%, 100%)" offset="0.992188"/><stop stop-opacity="1" stop-color="rgb(30.607605%, 36.669922%, 100%)" offset="1"/></linearGradient><clipPath id="24e9bc3a4b"><path d="M 58.253906 311.136719 L 58.351562 311.136719 L 58.351562 311.496094 L 58.253906 311.496094 Z M 58.253906 311.136719 " clip-rule="nonzero"/></clipPath><clipPath id="2e7f4363ae"><path d="M 58.273438 311.476562 C 58.273438 310.726562 58.351562 311.476562 58.351562 311.476562 " clip-rule="nonzero"/></clipPath><clipPath id="7cd3697dd7"><path d="M 48.640625 313.257812 L 48.996094 313.257812 L 48.996094 313.511719 L 48.640625 313.511719 Z M 48.640625 313.257812 " clip-rule="nonzero"/></clipPath><clipPath id="57a4b18f0a"><path d="M 48.976562 313.425781 C 48.300781 313.648438 48.898438 313.273438 48.898438 313.273438 " clip-rule="nonzero"/></clipPath></defs><g clip-path="url(#c4e47c0384)"><rect x="-37.5" fill="url(#de1e1c7e9f)" width="450" y="-37.499999" height="449.999989"/></g><path fill="#ffffff" d="M 291.074219 86.582031 C 292.265625 89.167969 294.277344 91.207031 296.933594 92.359375 L 307.988281 97.15625 C 308.355469 97.316406 308.691406 97.527344 309 97.785156 C 309.304688 98.042969 309.566406 98.339844 309.785156 98.675781 C 310.007812 99.011719 310.171875 99.371094 310.289062 99.753906 C 310.402344 100.140625 310.457031 100.53125 310.457031 100.933594 C 310.457031 101.332031 310.402344 101.726562 310.289062 102.109375 C 310.171875 102.492188 310.007812 102.851562 309.785156 103.1875 C 309.566406 103.523438 309.304688 103.820312 309 104.078125 C 308.691406 104.335938 308.355469 104.546875 307.988281 104.707031 L 297.027344 109.503906 C 295.71875 110.054688 294.558594 110.832031 293.546875 111.828125 C 292.535156 112.828125 291.746094 113.976562 291.175781 115.28125 L 282.496094 134.996094 C 280.949219 138.097656 276.28125 138.097656 274.726562 134.996094 L 266.046875 115.28125 C 265.460938 113.988281 264.664062 112.84375 263.65625 111.847656 C 262.648438 110.851562 261.492188 110.070312 260.195312 109.503906 L 249.230469 104.707031 C 248.863281 104.546875 248.527344 104.335938 248.222656 104.078125 C 247.917969 103.820312 247.652344 103.523438 247.433594 103.1875 C 247.214844 102.851562 247.046875 102.492188 246.933594 102.109375 C 246.820312 101.726562 246.761719 101.332031 246.761719 100.933594 C 246.761719 100.53125 246.820312 100.140625 246.933594 99.753906 C 247.046875 99.371094 247.214844 99.011719 247.433594 98.675781 C 247.652344 98.339844 247.917969 98.042969 248.222656 97.785156 C 248.527344 97.527344 248.863281 97.316406 249.230469 97.15625 L 260.195312 92.359375 C 261.503906 91.808594 262.664062 91.03125 263.675781 90.035156 C 264.6875 89.035156 265.476562 87.886719 266.046875 86.582031 L 274.726562 66.867188 C 276.273438 63.765625 280.941406 63.765625 282.496094 66.867188 Z M 182.921875 93.335938 C 183.351562 94.230469 183.925781 95.019531 184.644531 95.707031 C 185.359375 96.390625 186.175781 96.929688 187.089844 97.320312 L 194.949219 100.59375 C 197.316406 101.660156 197.316406 104.753906 194.949219 105.816406 L 187.089844 109.09375 C 186.164062 109.464844 185.339844 109.992188 184.621094 110.683594 C 183.898438 111.371094 183.332031 112.171875 182.921875 113.078125 L 176.769531 126.636719 C 175.632812 128.753906 172.3125 128.753906 171.183594 126.636719 L 165.035156 113.078125 C 164.605469 112.183594 164.03125 111.394531 163.3125 110.707031 C 162.59375 110.019531 161.78125 109.484375 160.867188 109.09375 L 153.003906 105.816406 C 152.472656 105.605469 152.042969 105.261719 151.71875 104.785156 C 151.398438 104.308594 151.234375 103.78125 151.234375 103.207031 C 151.234375 102.632812 151.398438 102.105469 151.71875 101.628906 C 152.042969 101.152344 152.472656 100.808594 153.003906 100.59375 L 160.867188 97.320312 C 161.792969 96.949219 162.613281 96.417969 163.335938 95.730469 C 164.054688 95.039062 164.621094 94.242188 165.035156 93.335938 L 171.183594 79.777344 C 172.320312 77.65625 175.644531 77.65625 176.769531 79.777344 Z M 73.894531 282.902344 L 58.773438 297.707031 C 58.285156 298.191406 57.851562 298.71875 57.46875 299.289062 C 57.085938 299.859375 56.761719 300.460938 56.496094 301.09375 C 56.234375 301.730469 56.035156 302.382812 55.902344 303.058594 C 55.765625 303.730469 55.699219 304.410156 55.699219 305.097656 C 55.699219 305.785156 55.765625 306.464844 55.902344 307.140625 C 56.035156 307.8125 56.234375 308.464844 56.496094 309.101562 C 56.761719 309.734375 57.085938 310.335938 57.46875 310.90625 C 57.851562 311.476562 58.285156 312.003906 58.773438 312.492188 L 62.503906 316.21875 C 66.507812 320.332031 73.148438 320.332031 77.152344 316.128906 L 92.089844 301.164062 L 92.0625 301.136719 L 219.46875 173.71875 L 234.699219 158.550781 C 238.660156 154.503906 238.660156 147.269531 234.699219 143.3125 L 231.699219 140.300781 C 227.660156 136.324219 219.46875 137.324219 214.921875 141.875 Z M 273.605469 194.628906 C 272.667969 194.175781 271.839844 193.574219 271.121094 192.824219 C 270.398438 192.070312 269.832031 191.21875 269.421875 190.261719 L 263.1875 175.503906 C 262.023438 173.128906 258.710938 173.128906 257.636719 175.503906 L 251.40625 190.269531 C 250.992188 191.222656 250.425781 192.078125 249.707031 192.828125 C 248.984375 193.578125 248.15625 194.175781 247.21875 194.628906 L 239.421875 198.195312 C 237.085938 199.378906 237.085938 202.742188 239.421875 203.835938 L 247.210938 207.402344 C 248.148438 207.855469 248.976562 208.457031 249.699219 209.207031 C 250.417969 209.960938 250.984375 210.8125 251.398438 211.769531 L 257.636719 226.527344 C 258.804688 228.902344 262.113281 228.902344 263.1875 226.527344 L 269.421875 211.769531 C 269.832031 210.8125 270.398438 209.960938 271.121094 209.207031 C 271.839844 208.457031 272.667969 207.855469 273.605469 207.402344 L 281.402344 203.835938 C 283.742188 202.652344 283.742188 199.285156 281.402344 198.195312 Z M 146.683594 173.71875 C 147.28125 173.71875 147.871094 173.660156 148.457031 173.546875 C 149.042969 173.429688 149.613281 173.253906 150.164062 173.027344 C 150.714844 172.796875 151.238281 172.519531 151.738281 172.1875 C 152.234375 171.855469 152.691406 171.476562 153.117188 171.054688 C 153.539062 170.632812 153.914062 170.171875 154.246094 169.675781 C 154.578125 169.179688 154.859375 168.65625 155.089844 168.101562 C 155.316406 167.550781 155.488281 166.980469 155.605469 166.394531 C 155.722656 165.808594 155.78125 165.21875 155.78125 164.621094 C 155.78125 164.023438 155.722656 163.433594 155.605469 162.847656 C 155.488281 162.261719 155.316406 161.691406 155.089844 161.140625 C 154.859375 160.585938 154.578125 160.0625 154.246094 159.566406 C 153.914062 159.070312 153.539062 158.609375 153.117188 158.1875 C 152.691406 157.765625 152.234375 157.386719 151.738281 157.054688 C 151.238281 156.722656 150.714844 156.445312 150.164062 156.214844 C 149.613281 155.988281 149.042969 155.8125 148.457031 155.699219 C 147.871094 155.582031 147.28125 155.523438 146.683594 155.523438 C 146.085938 155.523438 145.492188 155.582031 144.90625 155.699219 C 144.320312 155.8125 143.753906 155.988281 143.199219 156.214844 C 142.648438 156.445312 142.125 156.722656 141.628906 157.054688 C 141.128906 157.386719 140.671875 157.765625 140.25 158.1875 C 139.824219 158.609375 139.449219 159.070312 139.117188 159.566406 C 138.785156 160.0625 138.503906 160.585938 138.277344 161.140625 C 138.046875 161.691406 137.875 162.261719 137.757812 162.847656 C 137.640625 163.433594 137.582031 164.023438 137.582031 164.621094 C 137.582031 165.21875 137.640625 165.808594 137.757812 166.394531 C 137.875 166.980469 138.046875 167.550781 138.277344 168.101562 C 138.503906 168.65625 138.785156 169.179688 139.117188 169.675781 C 139.449219 170.171875 139.824219 170.632812 140.25 171.054688 C 140.671875 171.476562 141.128906 171.855469 141.628906 172.1875 C 142.125 172.519531 142.648438 172.796875 143.199219 173.027344 C 143.753906 173.253906 144.320312 173.429688 144.90625 173.546875 C 145.492188 173.660156 146.085938 173.71875 146.683594 173.71875 M 310.457031 164.621094 C 310.457031 165.21875 310.398438 165.808594 310.28125 166.394531 C 310.164062 166.980469 309.992188 167.550781 309.761719 168.101562 C 309.535156 168.65625 309.253906 169.179688 308.921875 169.675781 C 308.589844 170.171875 308.210938 170.632812 307.789062 171.054688 C 307.367188 171.476562 306.910156 171.855469 306.410156 172.1875 C 305.914062 172.519531 305.390625 172.796875 304.839844 173.027344 C 304.285156 173.253906 303.71875 173.429688 303.132812 173.546875 C 302.546875 173.660156 301.953125 173.71875 301.355469 173.71875 C 300.757812 173.71875 300.167969 173.660156 299.582031 173.546875 C 298.996094 173.429688 298.425781 173.253906 297.875 173.027344 C 297.324219 172.796875 296.796875 172.519531 296.300781 172.1875 C 295.804688 171.855469 295.34375 171.476562 294.921875 171.054688 C 294.5 170.632812 294.125 170.171875 293.792969 169.675781 C 293.460938 169.179688 293.179688 168.65625 292.949219 168.101562 C 292.722656 167.550781 292.550781 166.980469 292.433594 166.394531 C 292.316406 165.808594 292.257812 165.21875 292.257812 164.621094 C 292.257812 164.023438 292.316406 163.433594 292.433594 162.847656 C 292.550781 162.261719 292.722656 161.691406 292.949219 161.140625 C 293.179688 160.585938 293.460938 160.0625 293.792969 159.566406 C 294.125 159.070312 294.5 158.609375 294.921875 158.1875 C 295.34375 157.765625 295.804688 157.386719 296.300781 157.054688 C 296.796875 156.722656 297.324219 156.445312 297.875 156.214844 C 298.425781 155.988281 298.996094 155.8125 299.582031 155.699219 C 300.167969 155.582031 300.757812 155.523438 301.355469 155.523438 C 301.953125 155.523438 302.546875 155.582031 303.132812 155.699219 C 303.71875 155.8125 304.285156 155.988281 304.839844 156.214844 C 305.390625 156.445312 305.914062 156.722656 306.410156 157.054688 C 306.910156 157.386719 307.367188 157.765625 307.789062 158.1875 C 308.210938 158.609375 308.589844 159.070312 308.921875 159.566406 C 309.253906 160.0625 309.535156 160.585938 309.761719 161.140625 C 309.992188 161.691406 310.164062 162.261719 310.28125 162.847656 C 310.398438 163.433594 310.457031 164.023438 310.457031 164.621094 M 210.371094 82.734375 C 210.96875 82.734375 211.5625 82.675781 212.148438 82.558594 C 212.734375 82.441406 213.300781 82.269531 213.855469 82.042969 C 214.40625 81.8125 214.929688 81.535156 215.425781 81.203125 C 215.921875 80.871094 216.382812 80.492188 216.804688 80.070312 C 217.226562 79.648438 217.605469 79.1875 217.9375 78.691406 C 218.269531 78.195312 218.550781 77.671875 218.777344 77.117188 C 219.007812 76.566406 219.179688 75.996094 219.296875 75.410156 C 219.410156 74.824219 219.46875 74.234375 219.46875 73.636719 C 219.46875 73.039062 219.410156 72.445312 219.296875 71.859375 C 219.179688 71.273438 219.007812 70.707031 218.777344 70.15625 C 218.550781 69.601562 218.269531 69.078125 217.9375 68.582031 C 217.605469 68.085938 217.226562 67.625 216.804688 67.203125 C 216.382812 66.78125 215.921875 66.402344 215.425781 66.070312 C 214.929688 65.738281 214.40625 65.457031 213.855469 65.230469 C 213.300781 65 212.734375 64.828125 212.148438 64.710938 C 211.5625 64.597656 210.96875 64.539062 210.371094 64.539062 C 209.773438 64.539062 209.183594 64.597656 208.597656 64.710938 C 208.011719 64.828125 207.441406 65 206.890625 65.230469 C 206.335938 65.457031 205.8125 65.738281 205.316406 66.070312 C 204.820312 66.402344 204.359375 66.78125 203.9375 67.203125 C 203.515625 67.625 203.136719 68.085938 202.804688 68.582031 C 202.476562 69.078125 202.195312 69.601562 201.964844 70.15625 C 201.738281 70.707031 201.566406 71.273438 201.449219 71.859375 C 201.332031 72.445312 201.273438 73.039062 201.273438 73.636719 C 201.273438 74.234375 201.332031 74.824219 201.449219 75.410156 C 201.566406 75.996094 201.738281 76.566406 201.964844 77.117188 C 202.195312 77.671875 202.476562 78.195312 202.804688 78.691406 C 203.136719 79.1875 203.515625 79.648438 203.9375 80.070312 C 204.359375 80.492188 204.820312 80.871094 205.316406 81.203125 C 205.8125 81.535156 206.335938 81.8125 206.890625 82.042969 C 207.441406 82.269531 208.011719 82.441406 208.597656 82.558594 C 209.183594 82.675781 209.773438 82.734375 210.371094 82.734375 M 219.46875 237.410156 C 219.46875 238.007812 219.410156 238.597656 219.296875 239.183594 C 219.179688 239.769531 219.007812 240.339844 218.777344 240.890625 C 218.550781 241.441406 218.269531 241.96875 217.9375 242.464844 C 217.605469 242.960938 217.226562 243.421875 216.804688 243.84375 C 216.382812 244.265625 215.921875 244.644531 215.425781 244.972656 C 214.929688 245.304688 214.40625 245.585938 213.855469 245.816406 C 213.300781 246.042969 212.734375 246.214844 212.148438 246.332031 C 211.5625 246.449219 210.96875 246.507812 210.371094 246.507812 C 209.773438 246.507812 209.183594 246.449219 208.597656 246.332031 C 208.011719 246.214844 207.441406 246.042969 206.890625 245.816406 C 206.335938 245.585938 205.8125 245.304688 205.316406 244.972656 C 204.820312 244.644531 204.359375 244.265625 203.9375 243.84375 C 203.515625 243.421875 203.136719 242.960938 202.804688 242.464844 C 202.476562 241.96875 202.195312 241.441406 201.964844 240.890625 C 201.738281 240.339844 201.566406 239.769531 201.449219 239.183594 C 201.332031 238.597656 201.273438 238.007812 201.273438 237.410156 C 201.273438 236.8125 201.332031 236.21875 201.449219 235.632812 C 201.566406 235.046875 201.738281 234.480469 201.964844 233.925781 C 202.195312 233.375 202.476562 232.851562 202.804688 232.355469 C 203.136719 231.859375 203.515625 231.398438 203.9375 230.976562 C 204.359375 230.554688 204.820312 230.175781 205.316406 229.84375 C 205.8125 229.511719 206.335938 229.230469 206.890625 229.003906 C 207.441406 228.773438 208.011719 228.601562 208.597656 228.484375 C 209.183594 228.371094 209.773438 228.3125 210.371094 228.3125 C 210.96875 228.3125 211.5625 228.371094 212.148438 228.484375 C 212.734375 228.601562 213.300781 228.773438 213.855469 229.003906 C 214.40625 229.230469 214.929688 229.511719 215.425781 229.84375 C 215.921875 230.175781 216.382812 230.554688 216.804688 230.976562 C 217.226562 231.398438 217.605469 231.859375 217.9375 232.355469 C 218.269531 232.851562 218.550781 233.375 218.777344 233.925781 C 219.007812 234.480469 219.179688 235.046875 219.296875 235.632812 C 219.410156 236.21875 219.46875 236.8125 219.46875 237.410156 " fill-opacity="1" fill-rule="nonzero"/><g clip-path="url(#24e9bc3a4b)"><g clip-path="url(#2e7f4363ae)"><path fill="#ffffff" d="M 55.273438 307.726562 L 61.425781 307.726562 L 61.425781 314.546875 L 55.273438 314.546875 Z M 55.273438 307.726562 " fill-opacity="1" fill-rule="nonzero"/></g></g><g clip-path="url(#7cd3697dd7)"><g clip-path="url(#57a4b18f0a)"><path fill="#ffffff" d="M 45.300781 310.273438 L 52.054688 310.273438 L 52.054688 316.800781 L 45.300781 316.800781 Z M 45.300781 310.273438 " fill-opacity="1" fill-rule="nonzero"/></g></g></svg>