<svg xmlns="http://www.w3.org/2000/svg" xmlns:xlink="http://www.w3.org/1999/xlink" width="500" zoomAndPan="magnify" viewBox="0 0 375 82.499998" height="110" preserveAspectRatio="xMidYMid meet" version="1.0"><defs><g/></defs><g fill="#000000" fill-opacity="1"><g transform="translate(5.989716, 64.856923)"><g><path d="M 16.671875 0 L 12.015625 0 L 0.5 -37.140625 L 5.578125 -37.140625 L 12.953125 -12.015625 C 13.429688 -10.398438 13.910156 -8.375 14.390625 -5.9375 C 14.816406 -8.28125 15.269531 -10.304688 15.75 -12.015625 L 22.96875 -37.140625 L 27.6875 -37.140625 L 34.5625 -12.015625 C 35.09375 -10.015625 35.546875 -7.988281 35.921875 -5.9375 C 36.453125 -8.5625 36.929688 -10.585938 37.359375 -12.015625 L 45.078125 -37.140625 L 50.234375 -37.140625 L 37.859375 0 L 33.421875 0 L 26.84375 -23.90625 C 26.269531 -25.957031 25.71875 -28.316406 25.1875 -30.984375 C 24.570312 -28.222656 23.976562 -25.863281 23.40625 -23.90625 Z M 16.671875 0 "/></g></g></g><g fill="#000000" fill-opacity="1"><g transform="translate(56.793539, 64.856923)"><g><path d="M 9.953125 -25.828125 L 5.078125 -25.828125 C 5.273438 -34.035156 10.210938 -38.140625 19.890625 -38.140625 C 29.003906 -38.140625 33.5625 -34.421875 33.5625 -26.984375 L 33.5625 -6.15625 C 33.5625 -4.34375 34.160156 -3.4375 35.359375 -3.4375 C 35.828125 -3.4375 36.613281 -3.742188 37.71875 -4.359375 L 37.71875 -0.359375 C 36.238281 0.160156 35 0.421875 34 0.421875 C 30.65625 0.421875 28.984375 -1.269531 28.984375 -4.65625 L 28.984375 -5.515625 C 26.117188 -1.171875 21.632812 1 15.53125 1 C 11.476562 1 8.351562 -0.0703125 6.15625 -2.21875 C 4.25 -4.082031 3.296875 -6.5625 3.296875 -9.65625 C 3.296875 -13.039062 4.414062 -15.710938 6.65625 -17.671875 C 8.375 -19.148438 11.140625 -20.175781 14.953125 -20.75 L 28.765625 -22.96875 C 28.816406 -23.300781 28.84375 -23.632812 28.84375 -23.96875 C 28.84375 -27.976562 28.207031 -30.660156 26.9375 -32.015625 C 25.675781 -33.378906 23.257812 -34.0625 19.6875 -34.0625 C 16.4375 -34.0625 14.035156 -33.40625 12.484375 -32.09375 C 10.929688 -30.78125 10.085938 -28.691406 9.953125 -25.828125 Z M 28.984375 -19.328125 L 15.75 -16.890625 C 10.6875 -16.023438 8.15625 -13.660156 8.15625 -9.796875 C 8.15625 -7.648438 8.894531 -5.945312 10.375 -4.6875 C 11.851562 -3.425781 13.832031 -2.796875 16.3125 -2.796875 C 21.082031 -2.796875 24.6875 -4.582031 27.125 -8.15625 C 28.363281 -9.96875 28.984375 -12.257812 28.984375 -15.03125 Z M 28.984375 -19.328125 "/></g></g></g><g fill="#000000" fill-opacity="1"><g transform="translate(96.220164, 64.856923)"><g><path d="M 5.65625 -37.140625 L 10.234375 -37.140625 L 10.234375 -31.84375 C 13.097656 -36.039062 16.960938 -38.140625 21.828125 -38.140625 C 26.117188 -38.140625 29.363281 -36.851562 31.5625 -34.28125 C 33.226562 -32.320312 34.0625 -29.335938 34.0625 -25.328125 L 34.0625 0 L 29.484375 0 L 29.484375 -24.328125 C 29.484375 -27.765625 28.882812 -30.148438 27.6875 -31.484375 C 26.257812 -33.203125 24.113281 -34.0625 21.25 -34.0625 C 18.050781 -34.0625 15.378906 -32.960938 13.234375 -30.765625 C 11.234375 -28.765625 10.234375 -25.785156 10.234375 -21.828125 L 10.234375 0 L 5.65625 0 Z M 5.65625 -37.140625 "/></g></g></g><g fill="#000000" fill-opacity="1"><g transform="translate(135.86145, 64.856923)"><g><path d="M 36.421875 -51.234375 L 36.421875 0 L 31.78125 0 L 31.78125 -5.375 C 28.71875 -1.125 24.734375 1 19.828125 1 C 14.578125 1 10.445312 -1.023438 7.4375 -5.078125 C 4.8125 -8.609375 3.5 -13.117188 3.5 -18.609375 C 3.5 -24.804688 5.195312 -29.742188 8.59375 -33.421875 C 11.550781 -36.566406 15.296875 -38.140625 19.828125 -38.140625 C 24.734375 -38.140625 28.71875 -35.96875 31.78125 -31.625 L 31.78125 -51.234375 Z M 19.96875 -34.0625 C 16.050781 -34.0625 13.019531 -32.488281 10.875 -29.34375 C 9.019531 -26.625 8.09375 -23.019531 8.09375 -18.53125 C 8.09375 -13.382812 9.285156 -9.425781 11.671875 -6.65625 C 13.765625 -4.269531 16.53125 -3.078125 19.96875 -3.078125 C 23.6875 -3.078125 26.582031 -4.445312 28.65625 -7.1875 C 30.738281 -9.9375 31.78125 -13.742188 31.78125 -18.609375 C 31.78125 -23.710938 30.585938 -27.648438 28.203125 -30.421875 C 26.148438 -32.847656 23.40625 -34.0625 19.96875 -34.0625 Z M 19.96875 -34.0625 "/></g></g></g><g fill="#52a1ff" fill-opacity="1"><g transform="translate(177.939773, 64.856923)"><g><path d="M 9.515625 -8.875 C 10.804688 -8.875 11.90625 -8.429688 12.8125 -7.546875 C 13.71875 -6.660156 14.171875 -5.578125 14.171875 -4.296875 C 14.171875 -3.003906 13.71875 -1.90625 12.8125 -1 C 11.90625 -0.09375 10.804688 0.359375 9.515625 0.359375 C 8.273438 0.359375 7.203125 -0.09375 6.296875 -1 C 5.390625 -1.90625 4.9375 -3.003906 4.9375 -4.296875 C 4.9375 -5.578125 5.375 -6.660156 6.25 -7.546875 C 7.132812 -8.429688 8.222656 -8.875 9.515625 -8.875 Z M 9.515625 -8.875 "/></g></g></g><g fill="#000000" fill-opacity="1"><g transform="translate(197.054391, 64.856923)"><g><path d="M 35.921875 -17.8125 L 8.15625 -17.8125 C 8.300781 -12.851562 9.585938 -9.085938 12.015625 -6.515625 C 14.117188 -4.222656 16.890625 -3.078125 20.328125 -3.078125 C 25.710938 -3.078125 29.359375 -5.941406 31.265625 -11.671875 L 35.921875 -11.671875 C 33.296875 -3.222656 28.050781 1 20.1875 1 C 14.695312 1 10.445312 -0.953125 7.4375 -4.859375 C 4.8125 -8.347656 3.5 -12.859375 3.5 -18.390625 C 3.5 -24.734375 5.21875 -29.742188 8.65625 -33.421875 C 11.664062 -36.566406 15.484375 -38.140625 20.109375 -38.140625 C 25.304688 -38.140625 29.335938 -36.253906 32.203125 -32.484375 C 34.734375 -29.191406 36 -24.875 36 -19.53125 C 36 -19.195312 35.972656 -18.625 35.921875 -17.8125 Z M 31.203125 -21.546875 C 31.015625 -25.453125 29.941406 -28.515625 27.984375 -30.734375 C 26.023438 -32.953125 23.425781 -34.0625 20.1875 -34.0625 C 16.9375 -34.0625 14.285156 -32.972656 12.234375 -30.796875 C 10.179688 -28.628906 8.894531 -25.546875 8.375 -21.546875 Z M 31.203125 -21.546875 "/></g></g></g><g fill="#000000" fill-opacity="1"><g transform="translate(236.552577, 64.856923)"><g><path d="M 5.65625 -37.140625 L 10.234375 -37.140625 L 10.234375 -32.421875 C 12.671875 -36.234375 16.296875 -38.140625 21.109375 -38.140625 C 26.597656 -38.140625 30.175781 -35.921875 31.84375 -31.484375 C 34.375 -35.921875 38.3125 -38.140625 43.65625 -38.140625 C 47.613281 -38.140625 50.691406 -36.945312 52.890625 -34.5625 C 54.554688 -32.707031 55.390625 -29.675781 55.390625 -25.46875 L 55.390625 0 L 50.8125 0 L 50.8125 -25.46875 C 50.8125 -28.238281 50.238281 -30.289062 49.09375 -31.625 C 47.65625 -33.25 45.554688 -34.0625 42.796875 -34.0625 C 39.210938 -34.0625 36.539062 -32.703125 34.78125 -29.984375 C 33.539062 -28.078125 32.921875 -25.265625 32.921875 -21.546875 L 32.921875 0 L 28.34375 0 L 28.34375 -25.46875 C 28.34375 -28.238281 27.84375 -30.242188 26.84375 -31.484375 C 25.457031 -33.203125 23.40625 -34.0625 20.6875 -34.0625 C 17.488281 -34.0625 14.945312 -33.046875 13.0625 -31.015625 C 11.175781 -28.992188 10.234375 -26.265625 10.234375 -22.828125 L 10.234375 0 L 5.65625 0 Z M 5.65625 -37.140625 "/></g></g></g><g fill="#000000" fill-opacity="1"><g transform="translate(297.588712, 64.856923)"><g><path d="M 9.953125 -25.828125 L 5.078125 -25.828125 C 5.273438 -34.035156 10.210938 -38.140625 19.890625 -38.140625 C 29.003906 -38.140625 33.5625 -34.421875 33.5625 -26.984375 L 33.5625 -6.15625 C 33.5625 -4.34375 34.160156 -3.4375 35.359375 -3.4375 C 35.828125 -3.4375 36.613281 -3.742188 37.71875 -4.359375 L 37.71875 -0.359375 C 36.238281 0.160156 35 0.421875 34 0.421875 C 30.65625 0.421875 28.984375 -1.269531 28.984375 -4.65625 L 28.984375 -5.515625 C 26.117188 -1.171875 21.632812 1 15.53125 1 C 11.476562 1 8.351562 -0.0703125 6.15625 -2.21875 C 4.25 -4.082031 3.296875 -6.5625 3.296875 -9.65625 C 3.296875 -13.039062 4.414062 -15.710938 6.65625 -17.671875 C 8.375 -19.148438 11.140625 -20.175781 14.953125 -20.75 L 28.765625 -22.96875 C 28.816406 -23.300781 28.84375 -23.632812 28.84375 -23.96875 C 28.84375 -27.976562 28.207031 -30.660156 26.9375 -32.015625 C 25.675781 -33.378906 23.257812 -34.0625 19.6875 -34.0625 C 16.4375 -34.0625 14.035156 -33.40625 12.484375 -32.09375 C 10.929688 -30.78125 10.085938 -28.691406 9.953125 -25.828125 Z M 28.984375 -19.328125 L 15.75 -16.890625 C 10.6875 -16.023438 8.15625 -13.660156 8.15625 -9.796875 C 8.15625 -7.648438 8.894531 -5.945312 10.375 -4.6875 C 11.851562 -3.425781 13.832031 -2.796875 16.3125 -2.796875 C 21.082031 -2.796875 24.6875 -4.582031 27.125 -8.15625 C 28.363281 -9.96875 28.984375 -12.257812 28.984375 -15.03125 Z M 28.984375 -19.328125 "/></g></g></g><g fill="#000000" fill-opacity="1"><g transform="translate(337.015337, 64.856923)"><g><path d="M 10.234375 -37.140625 L 10.234375 0 L 5.578125 0 L 5.578125 -37.140625 Z M 7.9375 -50.3125 C 8.65625 -50.3125 9.273438 -50.046875 9.796875 -49.515625 C 10.328125 -48.992188 10.59375 -48.351562 10.59375 -47.59375 C 10.59375 -46.875 10.328125 -46.238281 9.796875 -45.6875 C 9.273438 -45.144531 8.65625 -44.875 7.9375 -44.875 C 7.175781 -44.875 6.53125 -45.144531 6 -45.6875 C 5.476562 -46.238281 5.21875 -46.875 5.21875 -47.59375 C 5.21875 -48.351562 5.476562 -48.992188 6 -49.515625 C 6.53125 -50.046875 7.175781 -50.3125 7.9375 -50.3125 Z M 7.9375 -50.3125 "/></g></g></g><g fill="#000000" fill-opacity="1"><g transform="translate(352.900473, 64.856923)"><g><path d="M 10.515625 -51.234375 L 10.515625 0 L 5.65625 0 L 5.65625 -51.234375 Z M 10.515625 -51.234375 "/></g></g></g></svg>