<svg xmlns="http://www.w3.org/2000/svg" xmlns:xlink="http://www.w3.org/1999/xlink" width="500" zoomAndPan="magnify" viewBox="0 0 375 97.5" height="130" preserveAspectRatio="xMidYMid meet" version="1.0"><defs><g/><clipPath id="1022f4dfa1"><path d="M 7.777344 7.863281 L 89.109375 7.863281 L 89.109375 89.199219 L 7.777344 89.199219 Z M 7.777344 7.863281 " clip-rule="nonzero"/></clipPath></defs><g clip-path="url(#1022f4dfa1)"><path fill="#5844e4" d="M 48.410156 7.863281 C 47.078125 7.863281 45.75 7.929688 44.425781 8.058594 C 43.101562 8.191406 41.785156 8.386719 40.480469 8.644531 C 39.175781 8.90625 37.886719 9.226562 36.613281 9.613281 C 35.339844 10 34.089844 10.449219 32.859375 10.957031 C 31.628906 11.46875 30.429688 12.035156 29.253906 12.664062 C 28.082031 13.289062 26.941406 13.972656 25.835938 14.710938 C 24.730469 15.453125 23.660156 16.242188 22.632812 17.085938 C 21.605469 17.933594 20.617188 18.824219 19.679688 19.765625 C 18.738281 20.707031 17.84375 21.691406 17 22.71875 C 16.15625 23.75 15.363281 24.816406 14.625 25.921875 C 13.886719 27.027344 13.203125 28.167969 12.574219 29.34375 C 11.949219 30.515625 11.378906 31.71875 10.871094 32.949219 C 10.359375 34.175781 9.914062 35.429688 9.527344 36.703125 C 9.140625 37.976562 8.816406 39.265625 8.558594 40.570312 C 8.296875 41.875 8.101562 43.1875 7.972656 44.515625 C 7.84375 45.839844 7.777344 47.164062 7.777344 48.496094 C 7.777344 49.828125 7.84375 51.15625 7.972656 52.480469 C 8.101562 53.804688 8.296875 55.117188 8.558594 56.421875 C 8.816406 57.726562 9.140625 59.015625 9.527344 60.289062 C 9.914062 61.5625 10.359375 62.816406 10.871094 64.046875 C 11.378906 65.273438 11.949219 66.476562 12.574219 67.648438 C 13.203125 68.824219 13.886719 69.964844 14.625 71.070312 C 15.363281 72.175781 16.15625 73.242188 17 74.273438 C 17.84375 75.300781 18.738281 76.285156 19.679688 77.226562 C 20.617188 78.167969 21.605469 79.0625 22.632812 79.90625 C 23.660156 80.75 24.730469 81.539062 25.835938 82.28125 C 26.941406 83.019531 28.082031 83.703125 29.253906 84.328125 C 30.429688 84.957031 31.628906 85.527344 32.859375 86.035156 C 34.089844 86.542969 35.339844 86.992188 36.613281 87.378906 C 37.886719 87.765625 39.175781 88.085938 40.480469 88.347656 C 41.785156 88.605469 43.101562 88.800781 44.425781 88.933594 C 45.75 89.0625 47.078125 89.128906 48.410156 89.128906 C 49.738281 89.128906 51.066406 89.0625 52.390625 88.933594 C 53.714844 88.800781 55.03125 88.605469 56.335938 88.347656 C 57.640625 88.085938 58.929688 87.765625 60.203125 87.378906 C 61.476562 86.992188 62.726562 86.542969 63.957031 86.035156 C 65.1875 85.527344 66.386719 84.957031 67.5625 84.328125 C 68.734375 83.703125 69.875 83.019531 70.980469 82.28125 C 72.089844 81.539062 73.15625 80.75 74.183594 79.90625 C 75.214844 79.0625 76.199219 78.167969 77.140625 77.226562 C 78.082031 76.285156 78.972656 75.300781 79.816406 74.273438 C 80.660156 73.242188 81.453125 72.175781 82.191406 71.070312 C 82.933594 69.964844 83.613281 68.824219 84.242188 67.648438 C 84.871094 66.476562 85.4375 65.273438 85.945312 64.046875 C 86.457031 62.816406 86.902344 61.5625 87.289062 60.289062 C 87.675781 59.015625 88 57.726562 88.257812 56.421875 C 88.519531 55.117188 88.714844 53.804688 88.84375 52.480469 C 88.976562 51.15625 89.039062 49.828125 89.039062 48.496094 C 89.039062 47.164062 88.972656 45.839844 88.84375 44.515625 C 88.714844 43.191406 88.519531 41.875 88.257812 40.570312 C 88 39.265625 87.675781 37.976562 87.289062 36.703125 C 86.902344 35.429688 86.457031 34.175781 85.945312 32.949219 C 85.4375 31.71875 84.867188 30.515625 84.242188 29.34375 C 83.613281 28.171875 82.929688 27.03125 82.191406 25.925781 C 81.453125 24.816406 80.660156 23.75 79.816406 22.722656 C 78.972656 21.691406 78.078125 20.707031 77.136719 19.765625 C 76.195312 18.824219 75.210938 17.933594 74.183594 17.089844 C 73.15625 16.246094 72.085938 15.453125 70.980469 14.714844 C 69.875 13.976562 68.734375 13.292969 67.5625 12.664062 C 66.386719 12.035156 65.1875 11.46875 63.957031 10.960938 C 62.726562 10.449219 61.476562 10 60.203125 9.617188 C 58.929688 9.230469 57.640625 8.90625 56.335938 8.644531 C 55.03125 8.386719 53.714844 8.191406 52.390625 8.0625 C 51.066406 7.929688 49.738281 7.863281 48.410156 7.863281 Z M 29.691406 28.445312 L 67.125 28.445312 C 67.519531 28.445312 67.914062 28.480469 68.304688 28.550781 C 68.695312 28.621094 69.074219 28.726562 69.445312 28.863281 C 69.816406 29 70.175781 29.171875 70.515625 29.371094 C 70.855469 29.574219 71.179688 29.800781 71.480469 30.058594 C 71.777344 30.320312 72.054688 30.601562 72.304688 30.910156 C 72.554688 31.214844 72.777344 31.542969 72.96875 31.890625 C 73.160156 32.238281 73.320312 32.597656 73.445312 32.972656 C 73.574219 33.347656 73.667969 33.730469 73.726562 34.121094 C 73.195312 34.414062 52.625 46.273438 51.265625 47.046875 C 50.378906 47.550781 49.425781 47.800781 48.410156 47.800781 C 47.390625 47.800781 46.4375 47.550781 45.550781 47.046875 C 44.21875 46.285156 23.597656 34.542969 23.089844 34.222656 C 23.144531 33.828125 23.230469 33.4375 23.355469 33.058594 C 23.476562 32.679688 23.632812 32.3125 23.824219 31.957031 C 24.011719 31.605469 24.230469 31.273438 24.480469 30.960938 C 24.730469 30.648438 25.003906 30.359375 25.304688 30.09375 C 25.605469 29.832031 25.929688 29.597656 26.273438 29.390625 C 26.617188 29.1875 26.976562 29.015625 27.351562 28.871094 C 27.722656 28.730469 28.109375 28.625 28.503906 28.554688 C 28.894531 28.484375 29.292969 28.445312 29.691406 28.445312 Z M 73.804688 61.867188 C 73.804688 62.304688 73.757812 62.738281 73.671875 63.167969 C 73.585938 63.597656 73.460938 64.015625 73.292969 64.421875 C 73.125 64.824219 72.917969 65.210938 72.675781 65.574219 C 72.429688 65.941406 72.15625 66.277344 71.84375 66.585938 C 71.535156 66.898438 71.199219 67.171875 70.832031 67.417969 C 70.46875 67.660156 70.085938 67.867188 69.679688 68.035156 C 69.273438 68.203125 68.855469 68.328125 68.425781 68.414062 C 67.996094 68.5 67.5625 68.542969 67.125 68.546875 L 29.691406 68.546875 C 29.253906 68.542969 28.820312 68.5 28.390625 68.414062 C 27.960938 68.328125 27.542969 68.203125 27.136719 68.035156 C 26.734375 67.867188 26.347656 67.660156 25.984375 67.417969 C 25.621094 67.171875 25.28125 66.898438 24.972656 66.585938 C 24.664062 66.277344 24.386719 65.941406 24.140625 65.574219 C 23.898438 65.210938 23.691406 64.824219 23.523438 64.421875 C 23.355469 64.015625 23.230469 63.597656 23.144531 63.167969 C 23.058594 62.738281 23.015625 62.304688 23.015625 61.867188 L 23.015625 37.257812 L 44.242188 49.371094 C 44.878906 49.734375 45.550781 50.007812 46.257812 50.195312 C 46.964844 50.382812 47.683594 50.476562 48.414062 50.476562 C 49.144531 50.476562 49.867188 50.382812 50.574219 50.195312 C 51.28125 50.007812 51.949219 49.734375 52.585938 49.371094 L 73.804688 37.15625 Z M 73.804688 61.867188 " fill-opacity="1" fill-rule="nonzero"/></g><g fill="#000000" fill-opacity="1"><g transform="translate(97.545286, 65.663267)"><g><path d="M 22.265625 -32.015625 C 21.503906 -33.066406 20.625 -33.890625 19.625 -34.484375 C 18.632812 -35.085938 17.46875 -35.390625 16.125 -35.390625 C 14.738281 -35.390625 13.554688 -34.9375 12.578125 -34.03125 C 11.597656 -33.125 11.109375 -32.035156 11.109375 -30.765625 C 11.109375 -29.609375 11.585938 -28.617188 12.546875 -27.796875 C 13.515625 -26.984375 14.941406 -26.210938 16.828125 -25.484375 C 20.097656 -24.140625 22.410156 -22.847656 23.765625 -21.609375 C 25.128906 -20.378906 26.070312 -19.054688 26.59375 -17.640625 C 27.125 -16.222656 27.390625 -14.660156 27.390625 -12.953125 C 27.390625 -8.785156 26.15625 -5.398438 23.6875 -2.796875 C 21.21875 -0.203125 17.953125 1.09375 13.890625 1.09375 C 11.054688 1.09375 8.59375 0.359375 6.5 -1.109375 C 4.414062 -2.585938 2.664062 -4.523438 1.25 -6.921875 L 6.421875 -11.984375 C 7.035156 -10.234375 8.03125 -8.796875 9.40625 -7.671875 C 10.789062 -6.546875 12.265625 -5.984375 13.828125 -5.984375 C 15.359375 -5.984375 16.617188 -6.535156 17.609375 -7.640625 C 18.609375 -8.753906 19.109375 -10.179688 19.109375 -11.921875 C 19.109375 -13.453125 18.632812 -14.671875 17.6875 -15.578125 C 16.75 -16.484375 15.351562 -17.300781 13.5 -18.03125 C 9.394531 -19.582031 6.585938 -21.226562 5.078125 -22.96875 C 3.578125 -24.71875 2.828125 -27.007812 2.828125 -29.84375 C 2.828125 -32.019531 3.332031 -34.050781 4.34375 -35.9375 C 5.363281 -37.820312 6.800781 -39.328125 8.65625 -40.453125 C 10.507812 -41.578125 12.5625 -42.140625 14.8125 -42.140625 C 16.8125 -42.140625 18.90625 -41.6875 21.09375 -40.78125 C 23.289062 -39.875 24.9375 -38.804688 26.03125 -37.578125 Z M 22.265625 -32.015625 "/></g></g></g><g fill="#000000" fill-opacity="1"><g transform="translate(126.184576, 65.663267)"><g><path d="M 23.09375 -27.609375 L 29.671875 -11.109375 L 35.34375 -26.734375 L 43.609375 -26.734375 L 31.203125 0.546875 L 27.328125 0.546875 L 21.625 -15.734375 L 15.25 0.546875 L 11.328125 0.546875 L -0.984375 -26.734375 L 7.34375 -26.734375 L 12.90625 -11.328125 L 19.4375 -27.609375 Z M 23.09375 -27.609375 "/></g></g></g><g fill="#000000" fill-opacity="1"><g transform="translate(168.816827, 65.663267)"><g><path d="M 2.390625 -37.953125 C 2.390625 -39.148438 2.828125 -40.203125 3.703125 -41.109375 C 4.578125 -42.015625 5.648438 -42.46875 6.921875 -42.46875 C 8.191406 -42.46875 9.257812 -42.015625 10.125 -41.109375 C 11 -40.203125 11.4375 -39.148438 11.4375 -37.953125 C 11.4375 -36.679688 11 -35.609375 10.125 -34.734375 C 9.257812 -33.867188 8.191406 -33.4375 6.921875 -33.4375 C 5.648438 -33.4375 4.578125 -33.867188 3.703125 -34.734375 C 2.828125 -35.609375 2.390625 -36.679688 2.390625 -37.953125 Z M 10.734375 -26.734375 L 10.734375 0 L 3.109375 0 L 3.109375 -26.734375 Z M 10.734375 -26.734375 "/></g></g></g><g fill="#000000" fill-opacity="1"><g transform="translate(182.592002, 65.663267)"><g><path d="M 16.71875 -39.15625 C 16.132812 -39.445312 15.609375 -39.671875 15.140625 -39.828125 C 14.671875 -39.992188 14.160156 -40.078125 13.609375 -40.078125 C 12.410156 -40.035156 11.613281 -39.5625 11.21875 -38.65625 C 10.820312 -37.75 10.625 -36.695312 10.625 -35.5 L 10.625 -26.734375 L 16.71875 -26.734375 L 16.71875 -20.3125 L 10.625 -20.3125 L 10.625 0 L 3 0 L 3 -20.3125 L 0.4375 -20.3125 L 0.4375 -26.734375 L 3 -26.734375 L 3 -34.6875 C 3 -38.5 3.878906 -41.472656 5.640625 -43.609375 C 7.398438 -45.753906 9.875 -46.828125 13.0625 -46.828125 C 14.445312 -46.828125 15.664062 -46.535156 16.71875 -45.953125 Z M 16.71875 -39.15625 "/></g></g></g><g fill="#000000" fill-opacity="1"><g transform="translate(199.089545, 65.663267)"><g><path d="M 11.265625 -35.78125 L 11.265625 -26.734375 L 15.953125 -26.734375 L 15.953125 -20.3125 L 11.265625 -20.3125 L 11.265625 0 L 3.640625 0 L 3.640625 -20.3125 L 1.03125 -20.3125 L 1.03125 -26.734375 L 3.640625 -26.734375 L 3.640625 -35.78125 Z M 11.265625 -35.78125 "/></g></g></g><g fill="#000000" fill-opacity="1"><g transform="translate(214.008106, 65.663267)"><g><path d="M 13.171875 -42.140625 L 23.3125 -15.078125 L 33 -42.140625 L 38.765625 -42.140625 L 44.921875 0 L 36.859375 0 L 33.59375 -25.484375 L 33.484375 -25.484375 L 24.171875 0.546875 L 21.40625 0.546875 L 12.421875 -25.484375 L 12.3125 -25.484375 L 8.65625 0 L 0.59375 0 L 7.515625 -42.140625 Z M 13.171875 -42.140625 "/></g></g></g><g fill="#000000" fill-opacity="1"><g transform="translate(259.526063, 65.663267)"><g><path d="M 20.46875 -26.734375 L 27.984375 -26.734375 L 27.984375 0 L 20.46875 0 L 20.46875 -2.453125 L 20.359375 -2.453125 C 19.566406 -1.398438 18.503906 -0.582031 17.171875 0 C 15.847656 0.582031 14.5 0.875 13.125 0.875 C 9.601562 0.875 6.671875 -0.507812 4.328125 -3.28125 C 1.984375 -6.0625 0.8125 -9.46875 0.8125 -13.5 C 0.8125 -16.007812 1.316406 -18.332031 2.328125 -20.46875 C 3.347656 -22.613281 4.789062 -24.335938 6.65625 -25.640625 C 8.53125 -26.953125 10.648438 -27.609375 13.015625 -27.609375 C 14.390625 -27.609375 15.738281 -27.316406 17.0625 -26.734375 C 18.394531 -26.148438 19.53125 -25.316406 20.46875 -24.234375 Z M 14.8125 -20.859375 C 13.101562 -20.859375 11.628906 -20.117188 10.390625 -18.640625 C 9.160156 -17.171875 8.546875 -15.421875 8.546875 -13.390625 C 8.546875 -11.359375 9.160156 -9.597656 10.390625 -8.109375 C 11.628906 -6.617188 13.117188 -5.875 14.859375 -5.875 C 16.640625 -5.875 18.144531 -6.609375 19.375 -8.078125 C 20.613281 -9.554688 21.234375 -11.328125 21.234375 -13.390625 C 21.234375 -15.460938 20.609375 -17.222656 19.359375 -18.671875 C 18.109375 -20.128906 16.59375 -20.859375 14.8125 -20.859375 Z M 14.8125 -20.859375 "/></g></g></g><g fill="#000000" fill-opacity="1"><g transform="translate(290.288798, 65.663267)"><g><path d="M 2.390625 -37.953125 C 2.390625 -39.148438 2.828125 -40.203125 3.703125 -41.109375 C 4.578125 -42.015625 5.648438 -42.46875 6.921875 -42.46875 C 8.191406 -42.46875 9.257812 -42.015625 10.125 -41.109375 C 11 -40.203125 11.4375 -39.148438 11.4375 -37.953125 C 11.4375 -36.679688 11 -35.609375 10.125 -34.734375 C 9.257812 -33.867188 8.191406 -33.4375 6.921875 -33.4375 C 5.648438 -33.4375 4.578125 -33.867188 3.703125 -34.734375 C 2.828125 -35.609375 2.390625 -36.679688 2.390625 -37.953125 Z M 10.734375 -26.734375 L 10.734375 0 L 3.109375 0 L 3.109375 -26.734375 Z M 10.734375 -26.734375 "/></g></g></g><g fill="#000000" fill-opacity="1"><g transform="translate(304.063973, 65.663267)"><g><path d="M 10.34375 -46.171875 L 10.34375 0 L 2.71875 0 L 2.71875 -46.171875 Z M 10.34375 -46.171875 "/></g></g></g><g fill="#000000" fill-opacity="1"><g transform="translate(317.076898, 65.663267)"><g><path d="M 8.875 -12.140625 C 8.875 -9.929688 9.34375 -8.179688 10.28125 -6.890625 C 11.226562 -5.597656 12.519531 -4.953125 14.15625 -4.953125 C 15.425781 -4.953125 16.46875 -5.296875 17.28125 -5.984375 C 18.101562 -6.679688 18.769531 -7.554688 19.28125 -8.609375 L 26.296875 -7.453125 C 25.359375 -4.734375 23.804688 -2.664062 21.640625 -1.25 C 19.484375 0.164062 16.988281 0.875 14.15625 0.875 C 10.195312 0.875 6.984375 -0.410156 4.515625 -2.984375 C 2.046875 -5.566406 0.8125 -8.945312 0.8125 -13.125 C 0.8125 -17.519531 1.972656 -21.03125 4.296875 -23.65625 C 6.617188 -26.289062 9.78125 -27.609375 13.78125 -27.609375 C 17.769531 -27.609375 20.878906 -26.316406 23.109375 -23.734375 C 25.347656 -21.160156 26.46875 -17.515625 26.46875 -12.796875 L 26.46875 -12.140625 Z M 19.28125 -16.875 C 19.019531 -18.550781 18.414062 -19.867188 17.46875 -20.828125 C 16.53125 -21.785156 15.425781 -22.265625 14.15625 -22.265625 C 12.957031 -22.265625 11.882812 -21.828125 10.9375 -20.953125 C 10 -20.085938 9.382812 -18.726562 9.09375 -16.875 Z M 19.28125 -16.875 "/></g></g></g><g fill="#000000" fill-opacity="1"><g transform="translate(344.354993, 65.663267)"><g><path d="M 19.328125 -19.875 C 18.390625 -20.53125 17.335938 -20.859375 16.171875 -20.859375 C 14.210938 -20.859375 12.75 -20.191406 11.78125 -18.859375 C 10.820312 -17.535156 10.34375 -15.351562 10.34375 -12.3125 L 10.34375 0 L 2.71875 0 L 2.71875 -26.734375 L 10.34375 -26.734375 L 10.34375 -23.953125 L 10.453125 -23.953125 C 11.210938 -25.117188 12.15625 -26.019531 13.28125 -26.65625 C 14.40625 -27.289062 15.675781 -27.609375 17.09375 -27.609375 C 18.144531 -27.566406 19.195312 -27.347656 20.25 -26.953125 Z M 19.328125 -19.875 "/></g></g></g></svg>