<svg xmlns="http://www.w3.org/2000/svg" xmlns:xlink="http://www.w3.org/1999/xlink" width="189" zoomAndPan="magnify" viewBox="0 0 141.75 93.749996" height="125" preserveAspectRatio="xMidYMid meet" version="1.0"><defs><clipPath id="1ab066ff48"><path d="M 0.0625 0 L 141.4375 0 L 141.4375 93.5 L 0.0625 93.5 Z M 0.0625 0 " clip-rule="nonzero"/></clipPath><clipPath id="f24863f42c"><path d="M 58.667969 3.363281 L 83.625 3.363281 L 83.625 28.316406 L 58.667969 28.316406 Z M 58.667969 3.363281 " clip-rule="nonzero"/></clipPath><clipPath id="e24013b294"><path d="M 61.285156 3.363281 L 81.003906 3.363281 C 82.449219 3.363281 83.625 4.535156 83.625 5.980469 L 83.625 25.699219 C 83.625 27.144531 82.449219 28.316406 81.003906 28.316406 L 61.285156 28.316406 C 59.839844 28.316406 58.667969 27.144531 58.667969 25.699219 L 58.667969 5.980469 C 58.667969 4.535156 59.839844 3.363281 61.285156 3.363281 Z M 61.285156 3.363281 " clip-rule="nonzero"/></clipPath><clipPath id="ed0a4ac6cc"><path d="M 86.242188 3.363281 L 111.195312 3.363281 L 111.195312 28.316406 L 86.242188 28.316406 Z M 86.242188 3.363281 " clip-rule="nonzero"/></clipPath><clipPath id="6ebd1568ca"><path d="M 88.859375 3.363281 L 108.578125 3.363281 C 110.023438 3.363281 111.195312 4.535156 111.195312 5.980469 L 111.195312 25.699219 C 111.195312 27.144531 110.023438 28.316406 108.578125 28.316406 L 88.859375 28.316406 C 87.414062 28.316406 86.242188 27.144531 86.242188 25.699219 L 86.242188 5.980469 C 86.242188 4.535156 87.414062 3.363281 88.859375 3.363281 Z M 88.859375 3.363281 " clip-rule="nonzero"/></clipPath><clipPath id="4653042f75"><path d="M 31.097656 3.363281 L 56.050781 3.363281 L 56.050781 28.316406 L 31.097656 28.316406 Z M 31.097656 3.363281 " clip-rule="nonzero"/></clipPath><clipPath id="a635389961"><path d="M 33.714844 3.363281 L 53.433594 3.363281 C 54.878906 3.363281 56.050781 4.535156 56.050781 5.980469 L 56.050781 25.699219 C 56.050781 27.144531 54.878906 28.316406 53.433594 28.316406 L 33.714844 28.316406 C 32.269531 28.316406 31.097656 27.144531 31.097656 25.699219 L 31.097656 5.980469 C 31.097656 4.535156 32.269531 3.363281 33.714844 3.363281 Z M 33.714844 3.363281 " clip-rule="nonzero"/></clipPath><clipPath id="472e886094"><path d="M 3.523438 3.363281 L 28.476562 3.363281 L 28.476562 28.316406 L 3.523438 28.316406 Z M 3.523438 3.363281 " clip-rule="nonzero"/></clipPath><clipPath id="693ad70094"><path d="M 6.140625 3.363281 L 25.859375 3.363281 C 27.304688 3.363281 28.476562 4.535156 28.476562 5.980469 L 28.476562 25.699219 C 28.476562 27.144531 27.304688 28.316406 25.859375 28.316406 L 6.140625 28.316406 C 4.695312 28.316406 3.523438 27.144531 3.523438 25.699219 L 3.523438 5.980469 C 3.523438 4.535156 4.695312 3.363281 6.140625 3.363281 Z M 6.140625 3.363281 " clip-rule="nonzero"/></clipPath><clipPath id="65eecead9c"><path d="M 113.890625 3.363281 L 138.84375 3.363281 L 138.84375 28.316406 L 113.890625 28.316406 Z M 113.890625 3.363281 " clip-rule="nonzero"/></clipPath><clipPath id="bc529f49fc"><path d="M 116.507812 3.363281 L 136.226562 3.363281 C 137.671875 3.363281 138.84375 4.535156 138.84375 5.980469 L 138.84375 25.699219 C 138.84375 27.144531 137.671875 28.316406 136.226562 28.316406 L 116.507812 28.316406 C 115.0625 28.316406 113.890625 27.144531 113.890625 25.699219 L 113.890625 5.980469 C 113.890625 4.535156 115.0625 3.363281 116.507812 3.363281 Z M 116.507812 3.363281 " clip-rule="nonzero"/></clipPath><clipPath id="294cce92ee"><path d="M 58.632812 34.570312 L 83.585938 34.570312 L 83.585938 59.523438 L 58.632812 59.523438 Z M 58.632812 34.570312 " clip-rule="nonzero"/></clipPath><clipPath id="dca3c797e7"><path d="M 61.25 34.570312 L 80.96875 34.570312 C 82.414062 34.570312 83.585938 35.742188 83.585938 37.1875 L 83.585938 56.90625 C 83.585938 58.351562 82.414062 59.523438 80.96875 59.523438 L 61.25 59.523438 C 59.804688 59.523438 58.632812 58.351562 58.632812 56.90625 L 58.632812 37.1875 C 58.632812 35.742188 59.804688 34.570312 61.25 34.570312 Z M 61.25 34.570312 " clip-rule="nonzero"/></clipPath><clipPath id="0150f8fe68"><path d="M 86.203125 34.570312 L 111.15625 34.570312 L 111.15625 59.523438 L 86.203125 59.523438 Z M 86.203125 34.570312 " clip-rule="nonzero"/></clipPath><clipPath id="9a1726cff8"><path d="M 88.820312 34.570312 L 108.539062 34.570312 C 109.984375 34.570312 111.15625 35.742188 111.15625 37.1875 L 111.15625 56.90625 C 111.15625 58.351562 109.984375 59.523438 108.539062 59.523438 L 88.820312 59.523438 C 87.375 59.523438 86.203125 58.351562 86.203125 56.90625 L 86.203125 37.1875 C 86.203125 35.742188 87.375 34.570312 88.820312 34.570312 Z M 88.820312 34.570312 " clip-rule="nonzero"/></clipPath><clipPath id="c8d8cdfef2"><path d="M 31.058594 34.570312 L 56.011719 34.570312 L 56.011719 59.523438 L 31.058594 59.523438 Z M 31.058594 34.570312 " clip-rule="nonzero"/></clipPath><clipPath id="bef0f5ff3f"><path d="M 33.675781 34.570312 L 53.394531 34.570312 C 54.839844 34.570312 56.011719 35.742188 56.011719 37.1875 L 56.011719 56.90625 C 56.011719 58.351562 54.839844 59.523438 53.394531 59.523438 L 33.675781 59.523438 C 32.230469 59.523438 31.058594 58.351562 31.058594 56.90625 L 31.058594 37.1875 C 31.058594 35.742188 32.230469 34.570312 33.675781 34.570312 Z M 33.675781 34.570312 " clip-rule="nonzero"/></clipPath><clipPath id="737f942748"><path d="M 3.484375 34.570312 L 28.441406 34.570312 L 28.441406 59.523438 L 3.484375 59.523438 Z M 3.484375 34.570312 " clip-rule="nonzero"/></clipPath><clipPath id="1821b2e9b2"><path d="M 6.105469 34.570312 L 25.824219 34.570312 C 27.269531 34.570312 28.441406 35.742188 28.441406 37.1875 L 28.441406 56.90625 C 28.441406 58.351562 27.269531 59.523438 25.824219 59.523438 L 6.105469 59.523438 C 4.660156 59.523438 3.484375 58.351562 3.484375 56.90625 L 3.484375 37.1875 C 3.484375 35.742188 4.660156 34.570312 6.105469 34.570312 Z M 6.105469 34.570312 " clip-rule="nonzero"/></clipPath><clipPath id="30f73fdaea"><path d="M 113.851562 34.570312 L 138.804688 34.570312 L 138.804688 59.523438 L 113.851562 59.523438 Z M 113.851562 34.570312 " clip-rule="nonzero"/></clipPath><clipPath id="f0013d7e7d"><path d="M 116.46875 34.570312 L 136.1875 34.570312 C 137.632812 34.570312 138.804688 35.742188 138.804688 37.1875 L 138.804688 56.90625 C 138.804688 58.351562 137.632812 59.523438 136.1875 59.523438 L 116.46875 59.523438 C 115.023438 59.523438 113.851562 58.351562 113.851562 56.90625 L 113.851562 37.1875 C 113.851562 35.742188 115.023438 34.570312 116.46875 34.570312 Z M 116.46875 34.570312 " clip-rule="nonzero"/></clipPath><clipPath id="2618591391"><path d="M 58.667969 65.773438 L 83.625 65.773438 L 83.625 90.730469 L 58.667969 90.730469 Z M 58.667969 65.773438 " clip-rule="nonzero"/></clipPath><clipPath id="ed9500d6de"><path d="M 61.285156 65.773438 L 81.003906 65.773438 C 82.449219 65.773438 83.625 66.945312 83.625 68.390625 L 83.625 88.109375 C 83.625 89.558594 82.449219 90.730469 81.003906 90.730469 L 61.285156 90.730469 C 59.839844 90.730469 58.667969 89.558594 58.667969 88.109375 L 58.667969 68.390625 C 58.667969 66.945312 59.839844 65.773438 61.285156 65.773438 Z M 61.285156 65.773438 " clip-rule="nonzero"/></clipPath><clipPath id="494987f75a"><path d="M 86.242188 65.773438 L 111.195312 65.773438 L 111.195312 90.730469 L 86.242188 90.730469 Z M 86.242188 65.773438 " clip-rule="nonzero"/></clipPath><clipPath id="14978c1635"><path d="M 88.859375 65.773438 L 108.578125 65.773438 C 110.023438 65.773438 111.195312 66.945312 111.195312 68.390625 L 111.195312 88.109375 C 111.195312 89.558594 110.023438 90.730469 108.578125 90.730469 L 88.859375 90.730469 C 87.414062 90.730469 86.242188 89.558594 86.242188 88.109375 L 86.242188 68.390625 C 86.242188 66.945312 87.414062 65.773438 88.859375 65.773438 Z M 88.859375 65.773438 " clip-rule="nonzero"/></clipPath><clipPath id="724ba20899"><path d="M 31.097656 65.773438 L 56.050781 65.773438 L 56.050781 90.730469 L 31.097656 90.730469 Z M 31.097656 65.773438 " clip-rule="nonzero"/></clipPath><clipPath id="14e8ebb7dc"><path d="M 33.714844 65.773438 L 53.433594 65.773438 C 54.878906 65.773438 56.050781 66.945312 56.050781 68.390625 L 56.050781 88.109375 C 56.050781 89.558594 54.878906 90.730469 53.433594 90.730469 L 33.714844 90.730469 C 32.269531 90.730469 31.097656 89.558594 31.097656 88.109375 L 31.097656 68.390625 C 31.097656 66.945312 32.269531 65.773438 33.714844 65.773438 Z M 33.714844 65.773438 " clip-rule="nonzero"/></clipPath><clipPath id="8a0855f04b"><path d="M 3.523438 65.773438 L 28.476562 65.773438 L 28.476562 90.730469 L 3.523438 90.730469 Z M 3.523438 65.773438 " clip-rule="nonzero"/></clipPath><clipPath id="ab5c0cef8c"><path d="M 6.140625 65.773438 L 25.859375 65.773438 C 27.304688 65.773438 28.476562 66.945312 28.476562 68.390625 L 28.476562 88.109375 C 28.476562 89.558594 27.304688 90.730469 25.859375 90.730469 L 6.140625 90.730469 C 4.695312 90.730469 3.523438 89.558594 3.523438 88.109375 L 3.523438 68.390625 C 3.523438 66.945312 4.695312 65.773438 6.140625 65.773438 Z M 6.140625 65.773438 " clip-rule="nonzero"/></clipPath><clipPath id="4a8d3b07d2"><path d="M 113.890625 65.773438 L 138.84375 65.773438 L 138.84375 90.730469 L 113.890625 90.730469 Z M 113.890625 65.773438 " clip-rule="nonzero"/></clipPath><clipPath id="1d4d5812d6"><path d="M 116.507812 65.773438 L 136.226562 65.773438 C 137.671875 65.773438 138.84375 66.945312 138.84375 68.390625 L 138.84375 88.109375 C 138.84375 89.558594 137.671875 90.730469 136.226562 90.730469 L 116.507812 90.730469 C 115.0625 90.730469 113.890625 89.558594 113.890625 88.109375 L 113.890625 68.390625 C 113.890625 66.945312 115.0625 65.773438 116.507812 65.773438 Z M 116.507812 65.773438 " clip-rule="nonzero"/></clipPath></defs><g clip-path="url(#1ab066ff48)"><path fill="#ffffff" d="M 0.0625 0 L 141.4375 0 L 141.4375 93.5 L 0.0625 93.5 Z M 0.0625 0 " fill-opacity="1" fill-rule="nonzero"/><path fill="#ffffff" d="M 0.0625 0 L 141.4375 0 L 141.4375 93.5 L 0.0625 93.5 Z M 0.0625 0 " fill-opacity="1" fill-rule="nonzero"/></g><g clip-path="url(#f24863f42c)"><g clip-path="url(#e24013b294)"><path fill="#d9d9d9" d="M 58.667969 3.363281 L 83.625 3.363281 L 83.625 28.316406 L 58.667969 28.316406 Z M 58.667969 3.363281 " fill-opacity="1" fill-rule="nonzero"/></g></g><g clip-path="url(#ed0a4ac6cc)"><g clip-path="url(#6ebd1568ca)"><path fill="#d9d9d9" d="M 86.242188 3.363281 L 111.195312 3.363281 L 111.195312 28.316406 L 86.242188 28.316406 Z M 86.242188 3.363281 " fill-opacity="1" fill-rule="nonzero"/></g></g><g clip-path="url(#4653042f75)"><g clip-path="url(#a635389961)"><path fill="#d9d9d9" d="M 31.097656 3.363281 L 56.050781 3.363281 L 56.050781 28.316406 L 31.097656 28.316406 Z M 31.097656 3.363281 " fill-opacity="1" fill-rule="nonzero"/></g></g><g clip-path="url(#472e886094)"><g clip-path="url(#693ad70094)"><path fill="#d9d9d9" d="M 3.523438 3.363281 L 28.476562 3.363281 L 28.476562 28.316406 L 3.523438 28.316406 Z M 3.523438 3.363281 " fill-opacity="1" fill-rule="nonzero"/></g></g><g clip-path="url(#65eecead9c)"><g clip-path="url(#bc529f49fc)"><path fill="#d9d9d9" d="M 113.890625 3.363281 L 138.84375 3.363281 L 138.84375 28.316406 L 113.890625 28.316406 Z M 113.890625 3.363281 " fill-opacity="1" fill-rule="nonzero"/></g></g><g clip-path="url(#294cce92ee)"><g clip-path="url(#dca3c797e7)"><path fill="#5271ff" d="M 58.632812 34.570312 L 83.585938 34.570312 L 83.585938 59.523438 L 58.632812 59.523438 Z M 58.632812 34.570312 " fill-opacity="1" fill-rule="nonzero"/></g></g><g clip-path="url(#0150f8fe68)"><g clip-path="url(#9a1726cff8)"><path fill="#5271ff" d="M 86.203125 34.570312 L 111.15625 34.570312 L 111.15625 59.523438 L 86.203125 59.523438 Z M 86.203125 34.570312 " fill-opacity="1" fill-rule="nonzero"/></g></g><g clip-path="url(#c8d8cdfef2)"><g clip-path="url(#bef0f5ff3f)"><path fill="#5271ff" d="M 31.058594 34.570312 L 56.011719 34.570312 L 56.011719 59.523438 L 31.058594 59.523438 Z M 31.058594 34.570312 " fill-opacity="1" fill-rule="nonzero"/></g></g><g clip-path="url(#737f942748)"><g clip-path="url(#1821b2e9b2)"><path fill="#5271ff" d="M 3.484375 34.570312 L 28.441406 34.570312 L 28.441406 59.523438 L 3.484375 59.523438 Z M 3.484375 34.570312 " fill-opacity="1" fill-rule="nonzero"/></g></g><g clip-path="url(#30f73fdaea)"><g clip-path="url(#f0013d7e7d)"><path fill="#5271ff" d="M 113.851562 34.570312 L 138.804688 34.570312 L 138.804688 59.523438 L 113.851562 59.523438 Z M 113.851562 34.570312 " fill-opacity="1" fill-rule="nonzero"/></g></g><g clip-path="url(#2618591391)"><g clip-path="url(#ed9500d6de)"><path fill="#d9d9d9" d="M 58.667969 65.773438 L 83.625 65.773438 L 83.625 90.730469 L 58.667969 90.730469 Z M 58.667969 65.773438 " fill-opacity="1" fill-rule="nonzero"/></g></g><g clip-path="url(#494987f75a)"><g clip-path="url(#14978c1635)"><path fill="#d9d9d9" d="M 86.242188 65.773438 L 111.195312 65.773438 L 111.195312 90.730469 L 86.242188 90.730469 Z M 86.242188 65.773438 " fill-opacity="1" fill-rule="nonzero"/></g></g><g clip-path="url(#724ba20899)"><g clip-path="url(#14e8ebb7dc)"><path fill="#d9d9d9" d="M 31.097656 65.773438 L 56.050781 65.773438 L 56.050781 90.730469 L 31.097656 90.730469 Z M 31.097656 65.773438 " fill-opacity="1" fill-rule="nonzero"/></g></g><g clip-path="url(#8a0855f04b)"><g clip-path="url(#ab5c0cef8c)"><path fill="#d9d9d9" d="M 3.523438 65.773438 L 28.476562 65.773438 L 28.476562 90.730469 L 3.523438 90.730469 Z M 3.523438 65.773438 " fill-opacity="1" fill-rule="nonzero"/></g></g><g clip-path="url(#4a8d3b07d2)"><g clip-path="url(#1d4d5812d6)"><path fill="#d9d9d9" d="M 113.890625 65.773438 L 138.84375 65.773438 L 138.84375 90.730469 L 113.890625 90.730469 Z M 113.890625 65.773438 " fill-opacity="1" fill-rule="nonzero"/></g></g></svg>