<svg xmlns="http://www.w3.org/2000/svg" xmlns:xlink="http://www.w3.org/1999/xlink" width="500" zoomAndPan="magnify" viewBox="0 0 375 74.999997" height="100" preserveAspectRatio="xMidYMid meet" version="1.0"><defs><g/><clipPath id="6a828b3767"><path d="M 173.050781 28.386719 L 205.300781 28.386719 L 205.300781 69.636719 L 173.050781 69.636719 Z M 173.050781 28.386719 " clip-rule="nonzero"/></clipPath></defs><g fill="#ffffff" fill-opacity="1"><g transform="translate(2.267585, 59.624994)"><g><path d="M 9.828125 0 L -0.859375 -34.3125 L 9.5625 -34.3125 L 13.984375 -14.84375 C 14.160156 -14.007812 14.347656 -13.140625 14.546875 -12.234375 C 14.742188 -11.335938 14.910156 -10.472656 15.046875 -9.640625 C 15.304688 -11.398438 15.679688 -13.160156 16.171875 -14.921875 L 21.1875 -34.3125 L 31.421875 -34.3125 L 36.765625 -14.921875 C 37.242188 -13.160156 37.617188 -11.398438 37.890625 -9.640625 C 38.015625 -10.472656 38.175781 -11.335938 38.375 -12.234375 C 38.570312 -13.140625 38.757812 -14.007812 38.9375 -14.84375 L 43.6875 -34.3125 L 53.390625 -34.3125 L 42.703125 0 L 33.0625 0 L 27.453125 -19.53125 C 26.921875 -21.25 26.523438 -22.96875 26.265625 -24.6875 C 26.128906 -23.851562 25.972656 -22.992188 25.796875 -22.109375 C 25.628906 -21.234375 25.4375 -20.375 25.21875 -19.53125 L 20.0625 0 Z M 9.828125 0 "/></g></g></g><g fill="#ffffff" fill-opacity="1"><g transform="translate(54.803619, 59.624994)"><g><path d="M 18.28125 0.859375 C 15.15625 0.859375 12.304688 0.0546875 9.734375 -1.546875 C 7.160156 -3.148438 5.113281 -5.304688 3.59375 -8.015625 C 2.070312 -10.722656 1.3125 -13.726562 1.3125 -17.03125 C 1.3125 -19.488281 1.75 -21.804688 2.625 -23.984375 C 3.507812 -26.171875 4.722656 -28.085938 6.265625 -29.734375 C 7.804688 -31.378906 9.597656 -32.675781 11.640625 -33.625 C 13.691406 -34.570312 15.90625 -35.046875 18.28125 -35.046875 C 21.269531 -35.046875 23.597656 -34.484375 25.265625 -33.359375 C 26.941406 -32.242188 28.242188 -30.757812 29.171875 -28.90625 L 29.171875 -34.3125 L 38.015625 -34.3125 L 38.015625 0 L 29.375 0 L 29.375 -5.609375 C 28.445312 -3.671875 27.132812 -2.109375 25.4375 -0.921875 C 23.75 0.265625 21.363281 0.859375 18.28125 0.859375 Z M 19.734375 -7.1875 C 21.710938 -7.1875 23.414062 -7.640625 24.84375 -8.546875 C 26.28125 -9.453125 27.394531 -10.648438 28.1875 -12.140625 C 28.976562 -13.640625 29.375 -15.269531 29.375 -17.03125 C 29.375 -18.832031 28.976562 -20.476562 28.1875 -21.96875 C 27.394531 -23.46875 26.28125 -24.679688 24.84375 -25.609375 C 23.414062 -26.535156 21.710938 -27 19.734375 -27 C 17.835938 -27 16.175781 -26.546875 14.75 -25.640625 C 13.320312 -24.734375 12.210938 -23.53125 11.421875 -22.03125 C 10.628906 -20.539062 10.234375 -18.894531 10.234375 -17.09375 C 10.234375 -15.375 10.628906 -13.753906 11.421875 -12.234375 C 12.210938 -10.722656 13.320312 -9.503906 14.75 -8.578125 C 16.175781 -7.648438 17.835938 -7.1875 19.734375 -7.1875 Z M 19.734375 -7.1875 "/></g></g></g><g fill="#ffffff" fill-opacity="1"><g transform="translate(95.459644, 59.624994)"><g><path d="M 2.640625 0 L 2.640625 -34.3125 L 11.421875 -34.3125 L 11.421875 -29.296875 C 13.222656 -33.171875 16.71875 -35.109375 21.90625 -35.109375 C 24.375 -35.109375 26.597656 -34.535156 28.578125 -33.390625 C 30.554688 -32.253906 32.117188 -30.628906 33.265625 -28.515625 C 34.410156 -26.398438 34.984375 -23.890625 34.984375 -20.984375 L 34.984375 0 L 26.0625 0 L 26.0625 -18.8125 C 26.0625 -21.800781 25.378906 -23.96875 24.015625 -25.3125 C 22.660156 -26.65625 20.878906 -27.328125 18.671875 -27.328125 C 16.785156 -27.328125 15.125 -26.65625 13.6875 -25.3125 C 12.257812 -23.96875 11.546875 -21.800781 11.546875 -18.8125 L 11.546875 0 Z M 2.640625 0 "/></g></g></g><g fill="#ffffff" fill-opacity="1"><g transform="translate(132.749665, 59.624994)"><g><path d="M 18.28125 0.859375 C 15.15625 0.859375 12.304688 0.0546875 9.734375 -1.546875 C 7.160156 -3.148438 5.113281 -5.304688 3.59375 -8.015625 C 2.070312 -10.722656 1.3125 -13.726562 1.3125 -17.03125 C 1.3125 -19.488281 1.75 -21.804688 2.625 -23.984375 C 3.507812 -26.171875 4.722656 -28.085938 6.265625 -29.734375 C 7.804688 -31.378906 9.597656 -32.675781 11.640625 -33.625 C 13.691406 -34.570312 15.90625 -35.046875 18.28125 -35.046875 C 21.226562 -35.046875 23.535156 -34.492188 25.203125 -33.390625 C 26.878906 -32.296875 28.179688 -30.847656 29.109375 -29.046875 L 29.109375 -48.1875 L 38.015625 -48.1875 L 38.015625 0 L 29.375 0 L 29.375 -5.609375 C 28.445312 -3.671875 27.132812 -2.109375 25.4375 -0.921875 C 23.75 0.265625 21.363281 0.859375 18.28125 0.859375 Z M 19.734375 -7.1875 C 21.710938 -7.1875 23.414062 -7.640625 24.84375 -8.546875 C 26.28125 -9.453125 27.394531 -10.648438 28.1875 -12.140625 C 28.976562 -13.640625 29.375 -15.269531 29.375 -17.03125 C 29.375 -18.832031 28.976562 -20.476562 28.1875 -21.96875 C 27.394531 -23.46875 26.28125 -24.679688 24.84375 -25.609375 C 23.414062 -26.535156 21.710938 -27 19.734375 -27 C 17.835938 -27 16.175781 -26.546875 14.75 -25.640625 C 13.320312 -24.734375 12.210938 -23.53125 11.421875 -22.03125 C 10.628906 -20.539062 10.234375 -18.894531 10.234375 -17.09375 C 10.234375 -15.375 10.628906 -13.753906 11.421875 -12.234375 C 12.210938 -10.722656 13.320312 -9.503906 14.75 -8.578125 C 16.175781 -7.648438 17.835938 -7.1875 19.734375 -7.1875 Z M 19.734375 -7.1875 "/></g></g></g><g fill="#ffffff" fill-opacity="1"><g transform="translate(173.408196, 59.624994)"><g/></g></g><g fill="#ffffff" fill-opacity="1"><g transform="translate(184.232201, 59.624994)"><g/></g></g><g fill="#ffffff" fill-opacity="1"><g transform="translate(195.056205, 59.624994)"><g/></g></g><g fill="#ffffff" fill-opacity="1"><g transform="translate(205.880854, 59.624994)"><g><path d="M 19.078125 0.859375 C 15.554688 0.859375 12.453125 0.046875 9.765625 -1.578125 C 7.078125 -3.210938 4.992188 -5.378906 3.515625 -8.078125 C 2.046875 -10.785156 1.3125 -13.789062 1.3125 -17.09375 C 1.3125 -20.394531 2.082031 -23.421875 3.625 -26.171875 C 5.164062 -28.921875 7.265625 -31.109375 9.921875 -32.734375 C 12.585938 -34.359375 15.640625 -35.171875 19.078125 -35.171875 C 22.503906 -35.171875 25.523438 -34.359375 28.140625 -32.734375 C 30.765625 -31.109375 32.8125 -28.921875 34.28125 -26.171875 C 35.757812 -23.421875 36.5 -20.394531 36.5 -17.09375 C 36.5 -16.613281 36.472656 -16.109375 36.421875 -15.578125 C 36.378906 -15.046875 36.316406 -14.492188 36.234375 -13.921875 L 10.5625 -13.921875 C 11.039062 -11.898438 12.015625 -10.25 13.484375 -8.96875 C 14.960938 -7.695312 16.828125 -7.0625 19.078125 -7.0625 C 21.015625 -7.0625 22.695312 -7.5 24.125 -8.375 C 25.550781 -9.257812 26.660156 -10.363281 27.453125 -11.6875 L 34.390625 -6.46875 C 33.023438 -4.3125 30.976562 -2.550781 28.25 -1.1875 C 25.519531 0.175781 22.460938 0.859375 19.078125 0.859375 Z M 18.9375 -27.515625 C 16.832031 -27.515625 15.03125 -26.875 13.53125 -25.59375 C 12.03125 -24.320312 11.039062 -22.65625 10.5625 -20.59375 L 27.515625 -20.59375 C 27.035156 -22.488281 26.035156 -24.113281 24.515625 -25.46875 C 22.992188 -26.832031 21.132812 -27.515625 18.9375 -27.515625 Z M 18.9375 -27.515625 "/></g></g></g><g fill="#ffffff" fill-opacity="1"><g transform="translate(243.632872, 59.624994)"><g><path d="M 2.640625 0 L 2.640625 -34.3125 L 11.421875 -34.3125 L 11.421875 -29.296875 C 13.222656 -33.171875 16.71875 -35.109375 21.90625 -35.109375 C 24.332031 -35.109375 26.507812 -34.546875 28.4375 -33.421875 C 30.375 -32.304688 31.914062 -30.710938 33.0625 -28.640625 C 34.207031 -30.710938 35.671875 -32.304688 37.453125 -33.421875 C 39.234375 -34.546875 41.644531 -35.109375 44.6875 -35.109375 C 47.144531 -35.109375 49.363281 -34.535156 51.34375 -33.390625 C 53.320312 -32.253906 54.882812 -30.628906 56.03125 -28.515625 C 57.175781 -26.398438 57.75 -23.890625 57.75 -20.984375 L 57.75 0 L 48.84375 0 L 48.84375 -18.8125 C 48.84375 -21.800781 48.203125 -23.96875 46.921875 -25.3125 C 45.648438 -26.65625 44 -27.328125 41.96875 -27.328125 C 39.90625 -27.328125 38.222656 -26.734375 36.921875 -25.546875 C 35.628906 -24.359375 34.984375 -22.113281 34.984375 -18.8125 L 34.984375 0 L 26.0625 0 L 26.0625 -18.8125 C 26.0625 -21.800781 25.378906 -23.96875 24.015625 -25.3125 C 22.660156 -26.65625 20.878906 -27.328125 18.671875 -27.328125 C 16.785156 -27.328125 15.125 -26.65625 13.6875 -25.3125 C 12.257812 -23.96875 11.546875 -21.800781 11.546875 -18.8125 L 11.546875 0 Z M 2.640625 0 "/></g></g></g><g fill="#ffffff" fill-opacity="1"><g transform="translate(303.692904, 59.624994)"><g><path d="M 18.28125 0.859375 C 15.15625 0.859375 12.304688 0.0546875 9.734375 -1.546875 C 7.160156 -3.148438 5.113281 -5.304688 3.59375 -8.015625 C 2.070312 -10.722656 1.3125 -13.726562 1.3125 -17.03125 C 1.3125 -19.488281 1.75 -21.804688 2.625 -23.984375 C 3.507812 -26.171875 4.722656 -28.085938 6.265625 -29.734375 C 7.804688 -31.378906 9.597656 -32.675781 11.640625 -33.625 C 13.691406 -34.570312 15.90625 -35.046875 18.28125 -35.046875 C 21.269531 -35.046875 23.597656 -34.484375 25.265625 -33.359375 C 26.941406 -32.242188 28.242188 -30.757812 29.171875 -28.90625 L 29.171875 -34.3125 L 38.015625 -34.3125 L 38.015625 0 L 29.375 0 L 29.375 -5.609375 C 28.445312 -3.671875 27.132812 -2.109375 25.4375 -0.921875 C 23.75 0.265625 21.363281 0.859375 18.28125 0.859375 Z M 19.734375 -7.1875 C 21.710938 -7.1875 23.414062 -7.640625 24.84375 -8.546875 C 26.28125 -9.453125 27.394531 -10.648438 28.1875 -12.140625 C 28.976562 -13.640625 29.375 -15.269531 29.375 -17.03125 C 29.375 -18.832031 28.976562 -20.476562 28.1875 -21.96875 C 27.394531 -23.46875 26.28125 -24.679688 24.84375 -25.609375 C 23.414062 -26.535156 21.710938 -27 19.734375 -27 C 17.835938 -27 16.175781 -26.546875 14.75 -25.640625 C 13.320312 -24.734375 12.210938 -23.53125 11.421875 -22.03125 C 10.628906 -20.539062 10.234375 -18.894531 10.234375 -17.09375 C 10.234375 -15.375 10.628906 -13.753906 11.421875 -12.234375 C 12.210938 -10.722656 13.320312 -9.503906 14.75 -8.578125 C 16.175781 -7.648438 17.835938 -7.1875 19.734375 -7.1875 Z M 19.734375 -7.1875 "/></g></g></g><g fill="#ffffff" fill-opacity="1"><g transform="translate(344.348929, 59.624994)"><g><path d="M 7.0625 -37.15625 C 5.5625 -37.15625 4.296875 -37.671875 3.265625 -38.703125 C 2.234375 -39.742188 1.71875 -40.988281 1.71875 -42.4375 C 1.71875 -43.84375 2.234375 -45.0625 3.265625 -46.09375 C 4.296875 -47.132812 5.5625 -47.65625 7.0625 -47.65625 C 8.601562 -47.65625 9.878906 -47.132812 10.890625 -46.09375 C 11.898438 -45.0625 12.40625 -43.84375 12.40625 -42.4375 C 12.40625 -40.9375 11.898438 -39.679688 10.890625 -38.671875 C 9.878906 -37.660156 8.601562 -37.15625 7.0625 -37.15625 Z M 2.640625 0 L 2.640625 -34.3125 L 11.546875 -34.3125 L 11.546875 0 Z M 2.640625 0 "/></g></g></g><g fill="#ffffff" fill-opacity="1"><g transform="translate(358.538937, 59.624994)"><g><path d="M 2.640625 0 L 2.640625 -48.1875 L 11.546875 -48.1875 L 11.546875 0 Z M 2.640625 0 "/></g></g></g><g clip-path="url(#6a828b3767)"><path fill="#52a1ff" d="M 189.296875 28.386719 C 192.027344 40.464844 193.460938 46.394531 205.535156 49.125 C 193.460938 51.851562 192.027344 57.785156 189.296875 69.859375 C 186.570312 57.785156 185.136719 51.851562 173.0625 49.125 C 185.136719 46.394531 186.570312 40.464844 189.296875 28.386719 Z M 189.296875 28.386719 " fill-opacity="1" fill-rule="nonzero"/></g></svg>